<svg xmlns="http://www.w3.org/2000/svg" xmlns:xlink="http://www.w3.org/1999/xlink" version="1.1" width="5.500in" height="4.000in" viewBox="0 0 4320 3142">
	<desc>Stata Graph - Graph</desc>
	<rect x="0" y="0" width="4320" height="3142" style="fill:#FFFFFF;stroke:none"/>
	<rect x="0.00" y="0.00" width="4320.00" height="3142.00" style="fill:#FFFFFF"/>
	<rect x="2.88" y="2.88" width="4314.24" height="3136.24" style="fill:none;stroke:#FFFFFF;stroke-width:5.76"/>
	<rect x="375.57" y="300.46" width="3843.58" height="2383.49" style="fill:#FFFFFF"/>
	<rect x="378.45" y="303.34" width="3837.83" height="2377.73" style="fill:none;stroke:#FFFFFF;stroke-opacity:0.00;stroke-width:5.76"/>
	<line x1="375.57" y1="2614.87" x2="4219.16" y2="2614.87" style="stroke:#E0E0E0;stroke-width:4.32"/>
	<line x1="375.57" y1="2053.43" x2="4219.16" y2="2053.43" style="stroke:#E0E0E0;stroke-width:4.32"/>
	<line x1="375.57" y1="1492.13" x2="4219.16" y2="1492.13" style="stroke:#E0E0E0;stroke-width:4.32"/>
	<line x1="375.57" y1="930.83" x2="4219.16" y2="930.83" style="stroke:#E0E0E0;stroke-width:4.32"/>
	<line x1="375.57" y1="369.53" x2="4219.16" y2="369.53" style="stroke:#E0E0E0;stroke-width:4.32"/>
	<line x1="438.89" y1="2683.95" x2="438.89" y2="300.46" style="stroke:#E0E0E0;stroke-width:4.32"/>
	<line x1="1182.33" y1="2683.95" x2="1182.33" y2="300.46" style="stroke:#E0E0E0;stroke-width:4.32"/>
	<line x1="1925.64" y1="2683.95" x2="1925.64" y2="300.46" style="stroke:#E0E0E0;stroke-width:4.32"/>
	<line x1="2669.09" y1="2683.95" x2="2669.09" y2="300.46" style="stroke:#E0E0E0;stroke-width:4.32"/>
	<line x1="3412.40" y1="2683.95" x2="3412.40" y2="300.46" style="stroke:#E0E0E0;stroke-width:4.32"/>
	<line x1="4155.84" y1="2683.95" x2="4155.84" y2="300.46" style="stroke:#E0E0E0;stroke-width:4.32"/>
	<line x1="1925.64" y1="2683.95" x2="1925.64" y2="300.46" style="stroke:#000000;stroke-width:7.20"/>
	<rect x="541.08" y="2322.51" width="35.50" height="292.36" style="fill:#FF3333;fill-opacity:0.20"/>
	<rect x="543.24" y="2324.67" width="31.19" height="288.04" style="fill:none;stroke:#FF0000;stroke-opacity:0.20;stroke-width:4.32"/>
	<rect x="576.59" y="2037.96" width="35.50" height="576.91" style="fill:#FF3333;fill-opacity:0.20"/>
	<rect x="578.74" y="2040.12" width="31.19" height="572.59" style="fill:none;stroke:#FF0000;stroke-opacity:0.20;stroke-width:4.32"/>
	<rect x="612.09" y="1997.31" width="35.50" height="617.56" style="fill:#FF3333;fill-opacity:0.20"/>
	<rect x="614.25" y="1999.47" width="31.19" height="613.24" style="fill:none;stroke:#FF0000;stroke-opacity:0.20;stroke-width:4.32"/>
	<rect x="647.60" y="2322.51" width="35.50" height="292.36" style="fill:#FF3333;fill-opacity:0.20"/>
	<rect x="649.75" y="2324.67" width="31.19" height="288.04" style="fill:none;stroke:#FF0000;stroke-opacity:0.20;stroke-width:4.32"/>
	<rect x="683.10" y="1560.32" width="35.50" height="1054.55" style="fill:#FF3333;fill-opacity:0.20"/>
	<rect x="685.26" y="1562.48" width="31.19" height="1050.23" style="fill:none;stroke:#FF0000;stroke-opacity:0.20;stroke-width:4.32"/>
	<rect x="718.61" y="2119.26" width="35.50" height="495.61" style="fill:#FF3333;fill-opacity:0.20"/>
	<rect x="720.76" y="2121.42" width="31.19" height="491.29" style="fill:none;stroke:#FF0000;stroke-opacity:0.20;stroke-width:4.32"/>
	<rect x="754.11" y="2139.59" width="35.50" height="475.28" style="fill:#FF3333;fill-opacity:0.20"/>
	<rect x="756.27" y="2141.75" width="31.19" height="470.96" style="fill:none;stroke:#FF0000;stroke-opacity:0.20;stroke-width:4.32"/>
	<rect x="789.62" y="2200.56" width="35.50" height="414.31" style="fill:#FF3333;fill-opacity:0.20"/>
	<rect x="791.77" y="2202.72" width="31.19" height="409.99" style="fill:none;stroke:#FF0000;stroke-opacity:0.20;stroke-width:4.32"/>
	<rect x="825.12" y="1794.06" width="35.50" height="820.81" style="fill:#FF3333;fill-opacity:0.20"/>
	<rect x="827.28" y="1796.22" width="31.19" height="816.49" style="fill:none;stroke:#FF0000;stroke-opacity:0.20;stroke-width:4.32"/>
	<rect x="860.63" y="1956.66" width="35.50" height="658.21" style="fill:#FF3333;fill-opacity:0.20"/>
	<rect x="862.78" y="1958.82" width="31.19" height="653.89" style="fill:none;stroke:#FF0000;stroke-opacity:0.20;stroke-width:4.32"/>
	<rect x="896.13" y="1824.55" width="35.50" height="790.32" style="fill:#FF3333;fill-opacity:0.20"/>
	<rect x="898.29" y="1826.71" width="31.19" height="786.00" style="fill:none;stroke:#FF0000;stroke-opacity:0.20;stroke-width:4.32"/>
	<rect x="931.64" y="1733.09" width="35.50" height="881.79" style="fill:#FF3333;fill-opacity:0.20"/>
	<rect x="933.79" y="1735.25" width="31.19" height="877.47" style="fill:none;stroke:#FF0000;stroke-opacity:0.20;stroke-width:4.32"/>
	<rect x="967.14" y="1712.76" width="35.50" height="902.11" style="fill:#FF3333;fill-opacity:0.20"/>
	<rect x="969.30" y="1714.92" width="31.19" height="897.79" style="fill:none;stroke:#FF0000;stroke-opacity:0.20;stroke-width:4.32"/>
	<rect x="1002.65" y="1895.69" width="35.51" height="719.19" style="fill:#FF3333;fill-opacity:0.20"/>
	<rect x="1004.80" y="1897.85" width="31.19" height="714.87" style="fill:none;stroke:#FF0000;stroke-opacity:0.20;stroke-width:4.32"/>
	<rect x="1038.15" y="1326.58" width="35.50" height="1288.29" style="fill:#FF3333;fill-opacity:0.20"/>
	<rect x="1040.31" y="1328.74" width="31.19" height="1283.97" style="fill:none;stroke:#FF0000;stroke-opacity:0.20;stroke-width:4.32"/>
	<rect x="1073.66" y="1489.18" width="35.51" height="1125.69" style="fill:#FF3333;fill-opacity:0.20"/>
	<rect x="1075.81" y="1491.34" width="31.19" height="1121.37" style="fill:none;stroke:#FF0000;stroke-opacity:0.20;stroke-width:4.32"/>
	<rect x="1109.16" y="1509.51" width="35.50" height="1105.36" style="fill:#FF3333;fill-opacity:0.20"/>
	<rect x="1111.32" y="1511.67" width="31.19" height="1101.04" style="fill:none;stroke:#FF0000;stroke-opacity:0.20;stroke-width:4.32"/>
	<rect x="1144.67" y="1661.95" width="35.51" height="952.92" style="fill:#FF3333;fill-opacity:0.20"/>
	<rect x="1146.82" y="1664.11" width="31.19" height="948.60" style="fill:none;stroke:#FF0000;stroke-opacity:0.20;stroke-width:4.32"/>
	<rect x="1180.17" y="1143.66" width="35.50" height="1471.22" style="fill:#FF3333;fill-opacity:0.20"/>
	<rect x="1182.33" y="1145.82" width="31.19" height="1466.90" style="fill:none;stroke:#FF0000;stroke-opacity:0.20;stroke-width:4.32"/>
	<rect x="1215.68" y="1052.19" width="35.51" height="1562.68" style="fill:#FF3333;fill-opacity:0.20"/>
	<rect x="1217.83" y="1054.35" width="31.19" height="1558.36" style="fill:none;stroke:#FF0000;stroke-opacity:0.20;stroke-width:4.32"/>
	<rect x="1251.18" y="1326.58" width="35.50" height="1288.29" style="fill:#FF3333;fill-opacity:0.20"/>
	<rect x="1253.34" y="1328.74" width="31.19" height="1283.97" style="fill:none;stroke:#FF0000;stroke-opacity:0.20;stroke-width:4.32"/>
	<rect x="1286.69" y="1052.19" width="35.51" height="1562.68" style="fill:#FF3333;fill-opacity:0.20"/>
	<rect x="1288.84" y="1054.35" width="31.19" height="1558.36" style="fill:none;stroke:#FF0000;stroke-opacity:0.20;stroke-width:4.32"/>
	<rect x="1322.19" y="1265.61" width="35.50" height="1349.26" style="fill:#FF3333;fill-opacity:0.20"/>
	<rect x="1324.35" y="1267.77" width="31.19" height="1344.94" style="fill:none;stroke:#FF0000;stroke-opacity:0.20;stroke-width:4.32"/>
	<rect x="1357.70" y="1204.63" width="35.51" height="1410.24" style="fill:#FF3333;fill-opacity:0.20"/>
	<rect x="1359.85" y="1206.79" width="31.19" height="1405.92" style="fill:none;stroke:#FF0000;stroke-opacity:0.20;stroke-width:4.32"/>
	<rect x="1393.20" y="1326.58" width="35.50" height="1288.29" style="fill:#FF3333;fill-opacity:0.20"/>
	<rect x="1395.36" y="1328.74" width="31.19" height="1283.97" style="fill:none;stroke:#FF0000;stroke-opacity:0.20;stroke-width:4.32"/>
	<rect x="1428.71" y="1042.03" width="35.37" height="1572.84" style="fill:#FF3333;fill-opacity:0.20"/>
	<rect x="1430.86" y="1044.19" width="31.05" height="1568.52" style="fill:none;stroke:#FF0000;stroke-opacity:0.20;stroke-width:4.32"/>
	<rect x="1464.08" y="1306.26" width="35.50" height="1308.61" style="fill:#FF3333;fill-opacity:0.20"/>
	<rect x="1466.23" y="1308.42" width="31.19" height="1304.29" style="fill:none;stroke:#FF0000;stroke-opacity:0.20;stroke-width:4.32"/>
	<rect x="1499.58" y="1031.87" width="35.51" height="1583.00" style="fill:#FF3333;fill-opacity:0.20"/>
	<rect x="1501.74" y="1034.03" width="31.19" height="1578.68" style="fill:none;stroke:#FF0000;stroke-opacity:0.20;stroke-width:4.32"/>
	<rect x="1535.09" y="1194.47" width="35.50" height="1420.40" style="fill:#FF3333;fill-opacity:0.20"/>
	<rect x="1537.24" y="1196.63" width="31.19" height="1416.08" style="fill:none;stroke:#FF0000;stroke-opacity:0.20;stroke-width:4.32"/>
	<rect x="1570.59" y="1092.84" width="35.51" height="1522.03" style="fill:#FF3333;fill-opacity:0.20"/>
	<rect x="1572.75" y="1095.00" width="31.19" height="1517.71" style="fill:none;stroke:#FF0000;stroke-opacity:0.20;stroke-width:4.32"/>
	<rect x="1606.10" y="838.78" width="35.50" height="1776.09" style="fill:#FF3333;fill-opacity:0.20"/>
	<rect x="1608.25" y="840.94" width="31.19" height="1771.77" style="fill:none;stroke:#FF0000;stroke-opacity:0.20;stroke-width:4.32"/>
	<rect x="1641.60" y="981.06" width="35.51" height="1633.82" style="fill:#FF3333;fill-opacity:0.20"/>
	<rect x="1643.76" y="983.22" width="31.19" height="1629.50" style="fill:none;stroke:#FF0000;stroke-opacity:0.20;stroke-width:4.32"/>
	<rect x="1677.11" y="818.45" width="35.50" height="1796.42" style="fill:#FF3333;fill-opacity:0.20"/>
	<rect x="1679.26" y="820.61" width="31.19" height="1792.10" style="fill:none;stroke:#FF0000;stroke-opacity:0.20;stroke-width:4.32"/>
	<rect x="1712.61" y="1163.98" width="35.51" height="1450.89" style="fill:#FF3333;fill-opacity:0.20"/>
	<rect x="1714.77" y="1166.14" width="31.19" height="1446.57" style="fill:none;stroke:#FF0000;stroke-opacity:0.20;stroke-width:4.32"/>
	<rect x="1748.12" y="1082.68" width="35.50" height="1532.19" style="fill:#FF3333;fill-opacity:0.20"/>
	<rect x="1750.27" y="1084.84" width="31.19" height="1527.87" style="fill:none;stroke:#FF0000;stroke-opacity:0.20;stroke-width:4.32"/>
	<rect x="1783.62" y="1143.66" width="35.51" height="1471.22" style="fill:#FF3333;fill-opacity:0.20"/>
	<rect x="1785.78" y="1145.82" width="31.19" height="1466.90" style="fill:none;stroke:#FF0000;stroke-opacity:0.20;stroke-width:4.32"/>
	<rect x="1819.13" y="1174.14" width="35.51" height="1440.73" style="fill:#FF3333;fill-opacity:0.20"/>
	<rect x="1821.28" y="1176.30" width="31.19" height="1436.41" style="fill:none;stroke:#FF0000;stroke-opacity:0.20;stroke-width:4.32"/>
	<rect x="1854.63" y="879.43" width="35.50" height="1735.44" style="fill:#FF3333;fill-opacity:0.20"/>
	<rect x="1856.79" y="881.59" width="31.19" height="1731.12" style="fill:none;stroke:#FF0000;stroke-opacity:0.20;stroke-width:4.32"/>
	<rect x="1890.14" y="848.94" width="35.51" height="1765.93" style="fill:#FF3333;fill-opacity:0.20"/>
	<rect x="1892.29" y="851.10" width="31.19" height="1761.61" style="fill:none;stroke:#FF0000;stroke-opacity:0.20;stroke-width:4.32"/>
	<rect x="1925.64" y="1239.83" width="48.06" height="1375.04" style="fill:#3333FF;fill-opacity:0.20"/>
	<rect x="1927.80" y="1241.99" width="43.74" height="1370.72" style="fill:none;stroke:#0000FF;stroke-opacity:0.20;stroke-width:4.32"/>
	<rect x="1973.70" y="1179.89" width="48.06" height="1434.98" style="fill:#3333FF;fill-opacity:0.20"/>
	<rect x="1975.86" y="1182.05" width="43.74" height="1430.66" style="fill:none;stroke:#0000FF;stroke-opacity:0.20;stroke-width:4.32"/>
	<rect x="2021.76" y="954.69" width="48.06" height="1660.18" style="fill:#3333FF;fill-opacity:0.20"/>
	<rect x="2023.92" y="956.85" width="43.74" height="1655.86" style="fill:none;stroke:#0000FF;stroke-opacity:0.20;stroke-width:4.32"/>
	<rect x="2069.82" y="1209.79" width="48.06" height="1405.09" style="fill:#3333FF;fill-opacity:0.20"/>
	<rect x="2071.98" y="1211.95" width="43.74" height="1400.77" style="fill:none;stroke:#0000FF;stroke-opacity:0.20;stroke-width:4.32"/>
	<rect x="2117.88" y="1037.32" width="48.06" height="1577.55" style="fill:#3333FF;fill-opacity:0.20"/>
	<rect x="2120.04" y="1039.48" width="43.74" height="1573.23" style="fill:none;stroke:#0000FF;stroke-opacity:0.20;stroke-width:4.32"/>
	<rect x="2165.94" y="969.71" width="48.20" height="1645.16" style="fill:#3333FF;fill-opacity:0.20"/>
	<rect x="2168.10" y="971.87" width="43.88" height="1640.84" style="fill:none;stroke:#0000FF;stroke-opacity:0.20;stroke-width:4.32"/>
	<rect x="2214.14" y="1112.29" width="48.06" height="1502.59" style="fill:#3333FF;fill-opacity:0.20"/>
	<rect x="2216.29" y="1114.45" width="43.74" height="1498.27" style="fill:none;stroke:#0000FF;stroke-opacity:0.20;stroke-width:4.32"/>
	<rect x="2262.20" y="1082.24" width="48.06" height="1532.63" style="fill:#3333FF;fill-opacity:0.20"/>
	<rect x="2264.35" y="1084.40" width="43.74" height="1528.31" style="fill:none;stroke:#0000FF;stroke-opacity:0.20;stroke-width:4.32"/>
	<rect x="2310.26" y="1202.42" width="48.06" height="1412.45" style="fill:#3333FF;fill-opacity:0.20"/>
	<rect x="2312.41" y="1204.58" width="43.74" height="1408.13" style="fill:none;stroke:#0000FF;stroke-opacity:0.20;stroke-width:4.32"/>
	<rect x="2358.32" y="1187.40" width="48.06" height="1427.47" style="fill:#3333FF;fill-opacity:0.20"/>
	<rect x="2360.47" y="1189.56" width="43.74" height="1423.15" style="fill:none;stroke:#0000FF;stroke-opacity:0.20;stroke-width:4.32"/>
	<rect x="2406.38" y="872.07" width="48.06" height="1742.81" style="fill:#3333FF;fill-opacity:0.20"/>
	<rect x="2408.53" y="874.23" width="43.74" height="1738.49" style="fill:none;stroke:#0000FF;stroke-opacity:0.20;stroke-width:4.32"/>
	<rect x="2454.44" y="1112.29" width="48.06" height="1502.59" style="fill:#3333FF;fill-opacity:0.20"/>
	<rect x="2456.59" y="1114.45" width="43.74" height="1498.27" style="fill:none;stroke:#0000FF;stroke-opacity:0.20;stroke-width:4.32"/>
	<rect x="2502.50" y="1142.33" width="48.06" height="1472.54" style="fill:#3333FF;fill-opacity:0.20"/>
	<rect x="2504.65" y="1144.49" width="43.74" height="1468.22" style="fill:none;stroke:#0000FF;stroke-opacity:0.20;stroke-width:4.32"/>
	<rect x="2550.55" y="812.12" width="48.06" height="1802.75" style="fill:#3333FF;fill-opacity:0.20"/>
	<rect x="2552.71" y="814.28" width="43.74" height="1798.43" style="fill:none;stroke:#0000FF;stroke-opacity:0.20;stroke-width:4.32"/>
	<rect x="2598.61" y="1082.24" width="48.06" height="1532.63" style="fill:#3333FF;fill-opacity:0.20"/>
	<rect x="2600.77" y="1084.40" width="43.74" height="1528.31" style="fill:none;stroke:#0000FF;stroke-opacity:0.20;stroke-width:4.32"/>
	<rect x="2646.68" y="1097.26" width="48.06" height="1517.61" style="fill:#3333FF;fill-opacity:0.20"/>
	<rect x="2648.83" y="1099.42" width="43.74" height="1513.29" style="fill:none;stroke:#0000FF;stroke-opacity:0.20;stroke-width:4.32"/>
	<rect x="2694.74" y="1284.90" width="48.19" height="1329.97" style="fill:#3333FF;fill-opacity:0.20"/>
	<rect x="2696.89" y="1287.06" width="43.88" height="1325.65" style="fill:none;stroke:#0000FF;stroke-opacity:0.20;stroke-width:4.32"/>
	<rect x="2742.93" y="1202.42" width="48.06" height="1412.45" style="fill:#3333FF;fill-opacity:0.20"/>
	<rect x="2745.09" y="1204.58" width="43.74" height="1408.13" style="fill:none;stroke:#0000FF;stroke-opacity:0.20;stroke-width:4.32"/>
	<rect x="2790.99" y="1284.90" width="48.06" height="1329.97" style="fill:#3333FF;fill-opacity:0.20"/>
	<rect x="2793.15" y="1287.06" width="43.74" height="1325.65" style="fill:none;stroke:#0000FF;stroke-opacity:0.20;stroke-width:4.32"/>
	<rect x="2839.05" y="1547.51" width="48.06" height="1067.36" style="fill:#3333FF;fill-opacity:0.20"/>
	<rect x="2841.21" y="1549.67" width="43.74" height="1063.04" style="fill:none;stroke:#0000FF;stroke-opacity:0.20;stroke-width:4.32"/>
	<rect x="2887.11" y="1344.99" width="48.06" height="1269.88" style="fill:#3333FF;fill-opacity:0.20"/>
	<rect x="2889.27" y="1347.15" width="43.74" height="1265.56" style="fill:none;stroke:#0000FF;stroke-opacity:0.20;stroke-width:4.32"/>
	<rect x="2935.17" y="1412.45" width="48.06" height="1202.42" style="fill:#3333FF;fill-opacity:0.20"/>
	<rect x="2937.33" y="1414.61" width="43.74" height="1198.10" style="fill:none;stroke:#0000FF;stroke-opacity:0.20;stroke-width:4.32"/>
	<rect x="2983.23" y="1510.10" width="48.06" height="1104.77" style="fill:#3333FF;fill-opacity:0.20"/>
	<rect x="2985.39" y="1512.26" width="43.74" height="1100.45" style="fill:none;stroke:#0000FF;stroke-opacity:0.20;stroke-width:4.32"/>
	<rect x="3031.29" y="1412.45" width="48.06" height="1202.42" style="fill:#3333FF;fill-opacity:0.20"/>
	<rect x="3033.45" y="1414.61" width="43.74" height="1198.10" style="fill:none;stroke:#0000FF;stroke-opacity:0.20;stroke-width:4.32"/>
	<rect x="3079.35" y="1532.63" width="48.06" height="1082.24" style="fill:#3333FF;fill-opacity:0.20"/>
	<rect x="3081.51" y="1534.79" width="43.74" height="1077.92" style="fill:none;stroke:#0000FF;stroke-opacity:0.20;stroke-width:4.32"/>
	<rect x="3127.41" y="1397.43" width="48.06" height="1217.45" style="fill:#3333FF;fill-opacity:0.20"/>
	<rect x="3129.57" y="1399.59" width="43.74" height="1213.13" style="fill:none;stroke:#0000FF;stroke-opacity:0.20;stroke-width:4.32"/>
	<rect x="3175.47" y="1142.33" width="48.06" height="1472.54" style="fill:#3333FF;fill-opacity:0.20"/>
	<rect x="3177.63" y="1144.49" width="43.74" height="1468.22" style="fill:none;stroke:#0000FF;stroke-opacity:0.20;stroke-width:4.32"/>
	<rect x="3223.53" y="1652.67" width="48.19" height="962.20" style="fill:#3333FF;fill-opacity:0.20"/>
	<rect x="3225.69" y="1654.83" width="43.88" height="957.88" style="fill:none;stroke:#0000FF;stroke-opacity:0.20;stroke-width:4.32"/>
	<rect x="3271.73" y="1404.94" width="48.06" height="1209.93" style="fill:#3333FF;fill-opacity:0.20"/>
	<rect x="3273.88" y="1407.10" width="43.74" height="1205.61" style="fill:none;stroke:#0000FF;stroke-opacity:0.20;stroke-width:4.32"/>
	<rect x="3319.79" y="1472.54" width="48.06" height="1142.33" style="fill:#3333FF;fill-opacity:0.20"/>
	<rect x="3321.94" y="1474.70" width="43.74" height="1138.01" style="fill:none;stroke:#0000FF;stroke-opacity:0.20;stroke-width:4.32"/>
	<rect x="3367.85" y="1720.12" width="48.06" height="894.75" style="fill:#3333FF;fill-opacity:0.20"/>
	<rect x="3370.00" y="1722.28" width="43.74" height="890.43" style="fill:none;stroke:#0000FF;stroke-opacity:0.20;stroke-width:4.32"/>
	<rect x="3415.91" y="1465.03" width="48.06" height="1149.84" style="fill:#3333FF;fill-opacity:0.20"/>
	<rect x="3418.06" y="1467.19" width="43.74" height="1145.52" style="fill:none;stroke:#0000FF;stroke-opacity:0.20;stroke-width:4.32"/>
	<rect x="3463.97" y="1675.20" width="48.06" height="939.67" style="fill:#3333FF;fill-opacity:0.20"/>
	<rect x="3466.12" y="1677.36" width="43.74" height="935.35" style="fill:none;stroke:#0000FF;stroke-opacity:0.20;stroke-width:4.32"/>
	<rect x="3512.03" y="1419.96" width="48.06" height="1194.91" style="fill:#3333FF;fill-opacity:0.20"/>
	<rect x="3514.18" y="1422.12" width="43.74" height="1190.59" style="fill:none;stroke:#0000FF;stroke-opacity:0.20;stroke-width:4.32"/>
	<rect x="3560.09" y="1450.01" width="48.06" height="1164.87" style="fill:#3333FF;fill-opacity:0.20"/>
	<rect x="3562.24" y="1452.17" width="43.74" height="1160.55" style="fill:none;stroke:#0000FF;stroke-opacity:0.20;stroke-width:4.32"/>
	<rect x="3608.15" y="1600.09" width="48.06" height="1014.78" style="fill:#3333FF;fill-opacity:0.20"/>
	<rect x="3610.30" y="1602.25" width="43.74" height="1010.46" style="fill:none;stroke:#0000FF;stroke-opacity:0.20;stroke-width:4.32"/>
	<rect x="3656.21" y="1585.07" width="48.06" height="1029.81" style="fill:#3333FF;fill-opacity:0.20"/>
	<rect x="3658.36" y="1587.23" width="43.74" height="1025.49" style="fill:none;stroke:#0000FF;stroke-opacity:0.20;stroke-width:4.32"/>
	<rect x="3704.27" y="1495.08" width="48.06" height="1119.80" style="fill:#3333FF;fill-opacity:0.20"/>
	<rect x="3706.42" y="1497.24" width="43.74" height="1115.48" style="fill:none;stroke:#0000FF;stroke-opacity:0.20;stroke-width:4.32"/>
	<rect x="3752.33" y="1465.03" width="48.20" height="1149.84" style="fill:#3333FF;fill-opacity:0.20"/>
	<rect x="3754.48" y="1467.19" width="43.88" height="1145.52" style="fill:none;stroke:#0000FF;stroke-opacity:0.20;stroke-width:4.32"/>
	<rect x="3800.52" y="1502.59" width="48.06" height="1112.29" style="fill:#3333FF;fill-opacity:0.20"/>
	<rect x="3802.68" y="1504.75" width="43.74" height="1107.97" style="fill:none;stroke:#0000FF;stroke-opacity:0.20;stroke-width:4.32"/>
	<defs>
		<path id="path_hmaEdyme" d="M541.08 2254.32 L541.08 2254.32 L694.98 2130.46 L848.75 1996.13 L1002.65 1757.83 L1156.41 1463.11 L1310.31 1304.93 L1464.08 1213.17 L1617.98 1134.53 L1771.88 1117.44 L1925.64 1307.73 L1925.64 698.57 L1771.88 930.83 L1617.98 955.28 L1464.08 1049.25 L1310.31 1140.27 L1156.41 1304.05 L1002.65 1608.93 L848.75 1859.01 L694.98 1997.16 L541.08 2128.69 L541.08 2254.32 Z" stroke-linejoin="round"/>
	</defs>
	<defs>
		<clipPath id="clipPath_glrPHJZg">
			<use xlink:href="#path_hmaEdyme"/>
		</clipPath>
	</defs>
	<use xlink:href="#path_hmaEdyme" style="stroke:none;fill:#FF3333;fill-opacity:0.30"/>
	<use xlink:href="#path_hmaEdyme" style="fill:none;stroke:#FFFFFF;stroke-opacity:0.00;stroke-width:17.28" clip-path="url(#clipPath_glrPHJZg)"/>
	<defs>
		<path id="path_dGTDzsKI" d="M1925.64 1411.12 L1925.64 1411.12 L2139.34 1179.15 L2352.92 1129.66 L2566.62 1151.61 L2780.33 1327.02 L2993.90 1489.04 L3207.60 1536.76 L3421.17 1583.45 L3634.88 1611.87 L3848.58 1582.86 L3848.58 1448.83 L3634.88 1477.70 L3421.17 1449.71 L3207.60 1399.93 L2993.90 1351.62 L2780.33 1184.16 L2566.62 1002.12 L2352.92 973.25 L2139.34 1014.49 L1925.64 917.87 L1925.64 1411.12 Z" stroke-linejoin="round"/>
	</defs>
	<defs>
		<clipPath id="clipPath_xBAezRHg">
			<use xlink:href="#path_dGTDzsKI"/>
		</clipPath>
	</defs>
	<use xlink:href="#path_dGTDzsKI" style="stroke:none;fill:#3333FF;fill-opacity:0.30"/>
	<use xlink:href="#path_dGTDzsKI" style="fill:none;stroke:#FFFFFF;stroke-opacity:0.00;stroke-width:17.28" clip-path="url(#clipPath_xBAezRHg)"/>
	<path d=" M541.08 2222.36 L694.85 2056.52 L848.75 1883.31 L1002.51 1666.37 L1156.41 1439.84 L1310.18 1261.04 L1464.08 1145.42 L1617.98 1069.43 L1771.74 1029.51 L1925.64 1068.54" stroke-linejoin="round" style="fill:none;stroke:#FF0000;stroke-width:7.20"/>
	<path d=" M1925.64 1100.06 L2139.21 1096.23 L2352.92 1085.77 L2566.49 1145.28 L2780.19 1254.71 L2993.90 1374.45 L3207.47 1458.40 L3421.17 1502.88 L3634.88 1522.91 L3848.45 1527.48" stroke-linejoin="round" style="fill:none;stroke:#0000FF;stroke-width:7.20"/>
	<line x1="375.57" y1="2614.87" x2="335.48" y2="2614.87" style="stroke:#808080;stroke-width:5.76"/>
	<text x="315.50" y="2645.43" style="font-family:'Helvetica';font-size:79.92px;fill:#000000" text-anchor="end">.005</text>
	<line x1="375.57" y1="2053.43" x2="335.48" y2="2053.43" style="stroke:#808080;stroke-width:5.76"/>
	<text x="315.50" y="2083.98" style="font-family:'Helvetica';font-size:79.92px;fill:#000000" text-anchor="end">.01</text>
	<line x1="375.57" y1="1492.13" x2="335.48" y2="1492.13" style="stroke:#808080;stroke-width:5.76"/>
	<text x="315.50" y="1522.68" style="font-family:'Helvetica';font-size:79.92px;fill:#000000" text-anchor="end">.015</text>
	<line x1="375.57" y1="930.83" x2="335.48" y2="930.83" style="stroke:#808080;stroke-width:5.76"/>
	<text x="315.50" y="961.39" style="font-family:'Helvetica';font-size:79.92px;fill:#000000" text-anchor="end">.02</text>
	<line x1="375.57" y1="369.53" x2="335.48" y2="369.53" style="stroke:#808080;stroke-width:5.76"/>
	<text x="315.50" y="400.09" style="font-family:'Helvetica';font-size:79.92px;fill:#000000" text-anchor="end">.025</text>
	<line x1="375.57" y1="2614.87" x2="375.57" y2="369.53" style="stroke:#808080;stroke-width:7.20"/>
	<line x1="438.89" y1="2683.95" x2="438.89" y2="2727.54" style="stroke:#808080;stroke-width:5.76"/>
	<text x="438.89" y="2810.30" style="font-family:'Helvetica';font-size:79.92px;fill:#000000" text-anchor="middle">-20</text>
	<line x1="1182.33" y1="2683.95" x2="1182.33" y2="2727.54" style="stroke:#808080;stroke-width:5.76"/>
	<text x="1182.33" y="2810.30" style="font-family:'Helvetica';font-size:79.92px;fill:#000000" text-anchor="middle">-10</text>
	<line x1="1925.64" y1="2683.95" x2="1925.64" y2="2727.54" style="stroke:#808080;stroke-width:5.76"/>
	<text x="1925.64" y="2810.30" style="font-family:'Helvetica';font-size:79.92px;fill:#000000" text-anchor="middle">0</text>
	<line x1="2669.09" y1="2683.95" x2="2669.09" y2="2727.54" style="stroke:#808080;stroke-width:5.76"/>
	<text x="2669.09" y="2810.30" style="font-family:'Helvetica';font-size:79.92px;fill:#000000" text-anchor="middle">10</text>
	<line x1="3412.40" y1="2683.95" x2="3412.40" y2="2727.54" style="stroke:#808080;stroke-width:5.76"/>
	<text x="3412.40" y="2810.30" style="font-family:'Helvetica';font-size:79.92px;fill:#000000" text-anchor="middle">20</text>
	<line x1="4155.84" y1="2683.95" x2="4155.84" y2="2727.54" style="stroke:#808080;stroke-width:5.76"/>
	<text x="4155.84" y="2810.30" style="font-family:'Helvetica';font-size:79.92px;fill:#000000" text-anchor="middle">30</text>
	<line x1="438.89" y1="2683.95" x2="4155.84" y2="2683.95" style="stroke:#808080;stroke-width:7.20"/>
	<text x="2297.30" y="2946.25" style="font-family:'Helvetica';font-size:79.92px;fill:#000000" text-anchor="middle">x1</text>
	<text x="2297.30" y="235.71" style="font-family:'Helvetica';font-size:140.00px;fill:#000000" text-anchor="middle">Manipulation Testing Plot</text>
</svg>