<svg xmlns="http://www.w3.org/2000/svg" xmlns:xlink="http://www.w3.org/1999/xlink" version="1.1" width="5.500in" height="4.000in" viewBox="0 0 4320 3142">
	<desc>Stata Graph - Graph</desc>
	<rect x="0" y="0" width="4320" height="3142" style="fill:#FFFFFF;stroke:none"/>
	<rect x="0.00" y="0.00" width="4320.00" height="3142.00" style="fill:#FFFFFF"/>
	<rect x="2.88" y="2.88" width="4314.24" height="3136.24" style="fill:none;stroke:#FFFFFF;stroke-width:5.76"/>
	<rect x="284.85" y="110.02" width="3934.31" height="2479.67" style="fill:#FFFFFF"/>
	<rect x="287.73" y="112.90" width="3928.55" height="2473.91" style="fill:none;stroke:#FFFFFF;stroke-opacity:0.00;stroke-width:5.76"/>
	<line x1="284.85" y1="2520.61" x2="4219.16" y2="2520.61" style="stroke:#E0E0E0;stroke-width:4.32"/>
	<line x1="284.85" y1="2052.25" x2="4219.16" y2="2052.25" style="stroke:#E0E0E0;stroke-width:4.32"/>
	<line x1="284.85" y1="1584.03" x2="4219.16" y2="1584.03" style="stroke:#E0E0E0;stroke-width:4.32"/>
	<line x1="284.85" y1="1115.67" x2="4219.16" y2="1115.67" style="stroke:#E0E0E0;stroke-width:4.32"/>
	<line x1="284.85" y1="647.46" x2="4219.16" y2="647.46" style="stroke:#E0E0E0;stroke-width:4.32"/>
	<line x1="284.85" y1="179.10" x2="4219.16" y2="179.10" style="stroke:#E0E0E0;stroke-width:4.32"/>
	<line x1="476.28" y1="2589.69" x2="476.28" y2="110.02" style="stroke:#E0E0E0;stroke-width:4.32"/>
	<line x1="1212.17" y1="2589.69" x2="1212.17" y2="110.02" style="stroke:#E0E0E0;stroke-width:4.32"/>
	<line x1="1948.05" y1="2589.69" x2="1948.05" y2="110.02" style="stroke:#E0E0E0;stroke-width:4.32"/>
	<line x1="2683.94" y1="2589.69" x2="2683.94" y2="110.02" style="stroke:#E0E0E0;stroke-width:4.32"/>
	<line x1="3419.82" y1="2589.69" x2="3419.82" y2="110.02" style="stroke:#E0E0E0;stroke-width:4.32"/>
	<line x1="4155.84" y1="2589.69" x2="4155.84" y2="110.02" style="stroke:#E0E0E0;stroke-width:4.32"/>
	<line x1="1948.05" y1="2589.69" x2="1948.05" y2="2564.50" style="stroke:#000000;stroke-width:7.20"/>
	<line x1="1948.05" y1="2542.56" x2="1948.05" y2="2517.37" style="stroke:#000000;stroke-width:7.20"/>
	<line x1="1948.05" y1="2495.43" x2="1948.05" y2="2470.24" style="stroke:#000000;stroke-width:7.20"/>
	<line x1="1948.05" y1="2448.29" x2="1948.05" y2="2423.11" style="stroke:#000000;stroke-width:7.20"/>
	<line x1="1948.05" y1="2401.16" x2="1948.05" y2="2375.98" style="stroke:#000000;stroke-width:7.20"/>
	<line x1="1948.05" y1="2354.03" x2="1948.05" y2="2328.85" style="stroke:#000000;stroke-width:7.20"/>
	<line x1="1948.05" y1="2306.90" x2="1948.05" y2="2281.72" style="stroke:#000000;stroke-width:7.20"/>
	<line x1="1948.05" y1="2259.77" x2="1948.05" y2="2234.59" style="stroke:#000000;stroke-width:7.20"/>
	<line x1="1948.05" y1="2212.64" x2="1948.05" y2="2187.46" style="stroke:#000000;stroke-width:7.20"/>
	<line x1="1948.05" y1="2165.51" x2="1948.05" y2="2140.32" style="stroke:#000000;stroke-width:7.20"/>
	<line x1="1948.05" y1="2118.38" x2="1948.05" y2="2093.19" style="stroke:#000000;stroke-width:7.20"/>
	<line x1="1948.05" y1="2071.25" x2="1948.05" y2="2046.06" style="stroke:#000000;stroke-width:7.20"/>
	<line x1="1948.05" y1="2024.12" x2="1948.05" y2="1998.93" style="stroke:#000000;stroke-width:7.20"/>
	<line x1="1948.05" y1="1976.99" x2="1948.05" y2="1951.80" style="stroke:#000000;stroke-width:7.20"/>
	<line x1="1948.05" y1="1929.86" x2="1948.05" y2="1904.67" style="stroke:#000000;stroke-width:7.20"/>
	<line x1="1948.05" y1="1882.73" x2="1948.05" y2="1857.54" style="stroke:#000000;stroke-width:7.20"/>
	<line x1="1948.05" y1="1835.59" x2="1948.05" y2="1810.41" style="stroke:#000000;stroke-width:7.20"/>
	<line x1="1948.05" y1="1788.46" x2="1948.05" y2="1763.28" style="stroke:#000000;stroke-width:7.20"/>
	<line x1="1948.05" y1="1741.33" x2="1948.05" y2="1716.15" style="stroke:#000000;stroke-width:7.20"/>
	<line x1="1948.05" y1="1694.20" x2="1948.05" y2="1669.02" style="stroke:#000000;stroke-width:7.20"/>
	<line x1="1948.05" y1="1647.07" x2="1948.05" y2="1621.89" style="stroke:#000000;stroke-width:7.20"/>
	<line x1="1948.05" y1="1599.94" x2="1948.05" y2="1574.76" style="stroke:#000000;stroke-width:7.20"/>
	<line x1="1948.05" y1="1552.81" x2="1948.05" y2="1527.62" style="stroke:#000000;stroke-width:7.20"/>
	<line x1="1948.05" y1="1505.68" x2="1948.05" y2="1480.49" style="stroke:#000000;stroke-width:7.20"/>
	<line x1="1948.05" y1="1458.55" x2="1948.05" y2="1433.36" style="stroke:#000000;stroke-width:7.20"/>
	<line x1="1948.05" y1="1411.42" x2="1948.05" y2="1386.23" style="stroke:#000000;stroke-width:7.20"/>
	<line x1="1948.05" y1="1364.29" x2="1948.05" y2="1339.10" style="stroke:#000000;stroke-width:7.20"/>
	<line x1="1948.05" y1="1317.16" x2="1948.05" y2="1291.97" style="stroke:#000000;stroke-width:7.20"/>
	<line x1="1948.05" y1="1270.03" x2="1948.05" y2="1244.84" style="stroke:#000000;stroke-width:7.20"/>
	<line x1="1948.05" y1="1222.90" x2="1948.05" y2="1197.71" style="stroke:#000000;stroke-width:7.20"/>
	<line x1="1948.05" y1="1175.76" x2="1948.05" y2="1150.58" style="stroke:#000000;stroke-width:7.20"/>
	<line x1="1948.05" y1="1128.63" x2="1948.05" y2="1103.45" style="stroke:#000000;stroke-width:7.20"/>
	<line x1="1948.05" y1="1081.50" x2="1948.05" y2="1056.32" style="stroke:#000000;stroke-width:7.20"/>
	<line x1="1948.05" y1="1034.37" x2="1948.05" y2="1009.19" style="stroke:#000000;stroke-width:7.20"/>
	<line x1="1948.05" y1="987.24" x2="1948.05" y2="962.06" style="stroke:#000000;stroke-width:7.20"/>
	<line x1="1948.05" y1="940.11" x2="1948.05" y2="914.93" style="stroke:#000000;stroke-width:7.20"/>
	<line x1="1948.05" y1="892.98" x2="1948.05" y2="867.79" style="stroke:#000000;stroke-width:7.20"/>
	<line x1="1948.05" y1="845.85" x2="1948.05" y2="820.66" style="stroke:#000000;stroke-width:7.20"/>
	<line x1="1948.05" y1="798.72" x2="1948.05" y2="773.53" style="stroke:#000000;stroke-width:7.20"/>
	<line x1="1948.05" y1="751.59" x2="1948.05" y2="726.40" style="stroke:#000000;stroke-width:7.20"/>
	<line x1="1948.05" y1="704.46" x2="1948.05" y2="679.27" style="stroke:#000000;stroke-width:7.20"/>
	<line x1="1948.05" y1="657.33" x2="1948.05" y2="632.14" style="stroke:#000000;stroke-width:7.20"/>
	<line x1="1948.05" y1="610.20" x2="1948.05" y2="585.01" style="stroke:#000000;stroke-width:7.20"/>
	<line x1="1948.05" y1="563.07" x2="1948.05" y2="537.88" style="stroke:#000000;stroke-width:7.20"/>
	<line x1="1948.05" y1="515.93" x2="1948.05" y2="490.75" style="stroke:#000000;stroke-width:7.20"/>
	<line x1="1948.05" y1="468.80" x2="1948.05" y2="443.62" style="stroke:#000000;stroke-width:7.20"/>
	<line x1="1948.05" y1="421.67" x2="1948.05" y2="396.49" style="stroke:#000000;stroke-width:7.20"/>
	<line x1="1948.05" y1="374.54" x2="1948.05" y2="349.36" style="stroke:#000000;stroke-width:7.20"/>
	<line x1="1948.05" y1="327.41" x2="1948.05" y2="302.23" style="stroke:#000000;stroke-width:7.20"/>
	<line x1="1948.05" y1="280.28" x2="1948.05" y2="255.10" style="stroke:#000000;stroke-width:7.20"/>
	<line x1="1948.05" y1="233.15" x2="1948.05" y2="207.96" style="stroke:#000000;stroke-width:7.20"/>
	<line x1="1948.05" y1="186.02" x2="1948.05" y2="160.83" style="stroke:#000000;stroke-width:7.20"/>
	<line x1="1948.05" y1="138.89" x2="1948.05" y2="113.70" style="stroke:#000000;stroke-width:7.20"/>
	<circle cx="1148.04" cy="2520.61" r="12.69" style="fill:#A0A0A0"/>
	<circle cx="1148.04" cy="2520.61" r="10.53" style="fill:none;stroke:#A0A0A0;stroke-width:4.32"/>
	<circle cx="1952.37" cy="1172.52" r="12.69" style="fill:#A0A0A0"/>
	<circle cx="1952.37" cy="1172.52" r="10.53" style="fill:none;stroke:#A0A0A0;stroke-width:4.32"/>
	<circle cx="1961.28" cy="1017.14" r="12.69" style="fill:#A0A0A0"/>
	<circle cx="1961.28" cy="1017.14" r="10.53" style="fill:none;stroke:#A0A0A0;stroke-width:4.32"/>
	<circle cx="1970.19" cy="1022.15" r="12.69" style="fill:#A0A0A0"/>
	<circle cx="1970.19" cy="1022.15" r="10.53" style="fill:none;stroke:#A0A0A0;stroke-width:4.32"/>
	<circle cx="1979.10" cy="910.80" r="12.69" style="fill:#A0A0A0"/>
	<circle cx="1979.10" cy="910.80" r="10.53" style="fill:none;stroke:#A0A0A0;stroke-width:4.32"/>
	<circle cx="1988.01" cy="952.04" r="12.69" style="fill:#A0A0A0"/>
	<circle cx="1988.01" cy="952.04" r="10.53" style="fill:none;stroke:#A0A0A0;stroke-width:4.32"/>
	<circle cx="1996.79" cy="1168.84" r="12.69" style="fill:#A0A0A0"/>
	<circle cx="1996.79" cy="1168.84" r="10.53" style="fill:none;stroke:#A0A0A0;stroke-width:4.32"/>
	<circle cx="2005.70" cy="1324.37" r="12.69" style="fill:#A0A0A0"/>
	<circle cx="2005.70" cy="1324.37" r="10.53" style="fill:none;stroke:#A0A0A0;stroke-width:4.32"/>
	<circle cx="2014.61" cy="1197.12" r="12.69" style="fill:#A0A0A0"/>
	<circle cx="2014.61" cy="1197.12" r="10.53" style="fill:none;stroke:#A0A0A0;stroke-width:4.32"/>
	<circle cx="2023.52" cy="770.44" r="12.69" style="fill:#A0A0A0"/>
	<circle cx="2023.52" cy="770.44" r="10.53" style="fill:none;stroke:#A0A0A0;stroke-width:4.32"/>
	<circle cx="2032.29" cy="1197.12" r="12.69" style="fill:#A0A0A0"/>
	<circle cx="2032.29" cy="1197.12" r="10.53" style="fill:none;stroke:#A0A0A0;stroke-width:4.32"/>
	<circle cx="2041.20" cy="1044.09" r="12.69" style="fill:#A0A0A0"/>
	<circle cx="2041.20" cy="1044.09" r="10.53" style="fill:none;stroke:#A0A0A0;stroke-width:4.32"/>
	<circle cx="2050.11" cy="1106.54" r="12.69" style="fill:#A0A0A0"/>
	<circle cx="2050.11" cy="1106.54" r="10.53" style="fill:none;stroke:#A0A0A0;stroke-width:4.32"/>
	<circle cx="2059.02" cy="1034.67" r="12.69" style="fill:#A0A0A0"/>
	<circle cx="2059.02" cy="1034.67" r="10.53" style="fill:none;stroke:#A0A0A0;stroke-width:4.32"/>
	<circle cx="2067.93" cy="1094.46" r="12.69" style="fill:#A0A0A0"/>
	<circle cx="2067.93" cy="1094.46" r="10.53" style="fill:none;stroke:#A0A0A0;stroke-width:4.32"/>
	<circle cx="2076.71" cy="1128.34" r="12.69" style="fill:#A0A0A0"/>
	<circle cx="2076.71" cy="1128.34" r="10.53" style="fill:none;stroke:#A0A0A0;stroke-width:4.32"/>
	<circle cx="2085.61" cy="1182.69" r="12.69" style="fill:#A0A0A0"/>
	<circle cx="2085.61" cy="1182.69" r="10.53" style="fill:none;stroke:#A0A0A0;stroke-width:4.32"/>
	<circle cx="2094.53" cy="1066.48" r="12.69" style="fill:#A0A0A0"/>
	<circle cx="2094.53" cy="1066.48" r="10.53" style="fill:none;stroke:#A0A0A0;stroke-width:4.32"/>
	<circle cx="2103.44" cy="972.96" r="12.69" style="fill:#A0A0A0"/>
	<circle cx="2103.44" cy="972.96" r="10.53" style="fill:none;stroke:#A0A0A0;stroke-width:4.32"/>
	<circle cx="2112.21" cy="976.20" r="12.69" style="fill:#A0A0A0"/>
	<circle cx="2112.21" cy="976.20" r="10.53" style="fill:none;stroke:#A0A0A0;stroke-width:4.32"/>
	<circle cx="2121.12" cy="1048.81" r="12.69" style="fill:#A0A0A0"/>
	<circle cx="2121.12" cy="1048.81" r="10.53" style="fill:none;stroke:#A0A0A0;stroke-width:4.32"/>
	<circle cx="2130.03" cy="1030.54" r="12.69" style="fill:#A0A0A0"/>
	<circle cx="2130.03" cy="1030.54" r="10.53" style="fill:none;stroke:#A0A0A0;stroke-width:4.32"/>
	<circle cx="2138.94" cy="1060.15" r="12.69" style="fill:#A0A0A0"/>
	<circle cx="2138.94" cy="1060.15" r="10.53" style="fill:none;stroke:#A0A0A0;stroke-width:4.32"/>
	<circle cx="2147.85" cy="1125.69" r="12.69" style="fill:#A0A0A0"/>
	<circle cx="2147.85" cy="1125.69" r="10.53" style="fill:none;stroke:#A0A0A0;stroke-width:4.32"/>
	<circle cx="2156.63" cy="982.68" r="12.69" style="fill:#A0A0A0"/>
	<circle cx="2156.63" cy="982.68" r="10.53" style="fill:none;stroke:#A0A0A0;stroke-width:4.32"/>
	<circle cx="2165.54" cy="990.63" r="12.69" style="fill:#A0A0A0"/>
	<circle cx="2165.54" cy="990.63" r="10.53" style="fill:none;stroke:#A0A0A0;stroke-width:4.32"/>
	<circle cx="2174.45" cy="1349.85" r="12.69" style="fill:#A0A0A0"/>
	<circle cx="2174.45" cy="1349.85" r="10.53" style="fill:none;stroke:#A0A0A0;stroke-width:4.32"/>
	<circle cx="2183.36" cy="1165.01" r="12.69" style="fill:#A0A0A0"/>
	<circle cx="2183.36" cy="1165.01" r="10.53" style="fill:none;stroke:#A0A0A0;stroke-width:4.32"/>
	<circle cx="2192.13" cy="1052.19" r="12.69" style="fill:#A0A0A0"/>
	<circle cx="2192.13" cy="1052.19" r="10.53" style="fill:none;stroke:#A0A0A0;stroke-width:4.32"/>
	<circle cx="2201.04" cy="1070.16" r="12.69" style="fill:#A0A0A0"/>
	<circle cx="2201.04" cy="1070.16" r="10.53" style="fill:none;stroke:#A0A0A0;stroke-width:4.32"/>
	<circle cx="2209.95" cy="1101.53" r="12.69" style="fill:#A0A0A0"/>
	<circle cx="2209.95" cy="1101.53" r="10.53" style="fill:none;stroke:#A0A0A0;stroke-width:4.32"/>
	<circle cx="2218.86" cy="1013.90" r="12.69" style="fill:#A0A0A0"/>
	<circle cx="2218.86" cy="1013.90" r="10.53" style="fill:none;stroke:#A0A0A0;stroke-width:4.32"/>
	<circle cx="2227.77" cy="982.68" r="12.69" style="fill:#A0A0A0"/>
	<circle cx="2227.77" cy="982.68" r="10.53" style="fill:none;stroke:#A0A0A0;stroke-width:4.32"/>
	<circle cx="2236.55" cy="1169.73" r="12.69" style="fill:#A0A0A0"/>
	<circle cx="2236.55" cy="1169.73" r="10.53" style="fill:none;stroke:#A0A0A0;stroke-width:4.32"/>
	<circle cx="2245.46" cy="1028.48" r="12.69" style="fill:#A0A0A0"/>
	<circle cx="2245.46" cy="1028.48" r="10.53" style="fill:none;stroke:#A0A0A0;stroke-width:4.32"/>
	<circle cx="2254.36" cy="1185.93" r="12.69" style="fill:#A0A0A0"/>
	<circle cx="2254.36" cy="1185.93" r="10.53" style="fill:none;stroke:#A0A0A0;stroke-width:4.32"/>
	<circle cx="2263.28" cy="1035.85" r="12.69" style="fill:#A0A0A0"/>
	<circle cx="2263.28" cy="1035.85" r="10.53" style="fill:none;stroke:#A0A0A0;stroke-width:4.32"/>
	<circle cx="2272.05" cy="915.07" r="12.69" style="fill:#A0A0A0"/>
	<circle cx="2272.05" cy="915.07" r="10.53" style="fill:none;stroke:#A0A0A0;stroke-width:4.32"/>
	<circle cx="2280.96" cy="1281.07" r="12.69" style="fill:#A0A0A0"/>
	<circle cx="2280.96" cy="1281.07" r="10.53" style="fill:none;stroke:#A0A0A0;stroke-width:4.32"/>
	<circle cx="2289.87" cy="967.36" r="12.69" style="fill:#A0A0A0"/>
	<circle cx="2289.87" cy="967.36" r="10.53" style="fill:none;stroke:#A0A0A0;stroke-width:4.32"/>
	<circle cx="2298.78" cy="1250.29" r="12.69" style="fill:#A0A0A0"/>
	<circle cx="2298.78" cy="1250.29" r="10.53" style="fill:none;stroke:#A0A0A0;stroke-width:4.32"/>
	<circle cx="2307.69" cy="1312.89" r="12.69" style="fill:#A0A0A0"/>
	<circle cx="2307.69" cy="1312.89" r="10.53" style="fill:none;stroke:#A0A0A0;stroke-width:4.32"/>
	<circle cx="2316.47" cy="1185.63" r="12.69" style="fill:#A0A0A0"/>
	<circle cx="2316.47" cy="1185.63" r="10.53" style="fill:none;stroke:#A0A0A0;stroke-width:4.32"/>
	<circle cx="2325.38" cy="975.31" r="12.69" style="fill:#A0A0A0"/>
	<circle cx="2325.38" cy="975.31" r="10.53" style="fill:none;stroke:#A0A0A0;stroke-width:4.32"/>
	<circle cx="2334.29" cy="1281.07" r="12.69" style="fill:#A0A0A0"/>
	<circle cx="2334.29" cy="1281.07" r="10.53" style="fill:none;stroke:#A0A0A0;stroke-width:4.32"/>
	<circle cx="2343.20" cy="988.86" r="12.69" style="fill:#A0A0A0"/>
	<circle cx="2343.20" cy="988.86" r="10.53" style="fill:none;stroke:#A0A0A0;stroke-width:4.32"/>
	<circle cx="2351.97" cy="1079.74" r="12.69" style="fill:#A0A0A0"/>
	<circle cx="2351.97" cy="1079.74" r="10.53" style="fill:none;stroke:#A0A0A0;stroke-width:4.32"/>
	<circle cx="2360.88" cy="1219.80" r="12.69" style="fill:#A0A0A0"/>
	<circle cx="2360.88" cy="1219.80" r="10.53" style="fill:none;stroke:#A0A0A0;stroke-width:4.32"/>
	<circle cx="2369.79" cy="1106.54" r="12.69" style="fill:#A0A0A0"/>
	<circle cx="2369.79" cy="1106.54" r="10.53" style="fill:none;stroke:#A0A0A0;stroke-width:4.32"/>
	<circle cx="2378.70" cy="1245.43" r="12.69" style="fill:#A0A0A0"/>
	<circle cx="2378.70" cy="1245.43" r="10.53" style="fill:none;stroke:#A0A0A0;stroke-width:4.32"/>
	<circle cx="2387.61" cy="1349.85" r="12.69" style="fill:#A0A0A0"/>
	<circle cx="2387.61" cy="1349.85" r="10.53" style="fill:none;stroke:#A0A0A0;stroke-width:4.32"/>
	<circle cx="2396.39" cy="1075.32" r="12.69" style="fill:#A0A0A0"/>
	<circle cx="2396.39" cy="1075.32" r="10.53" style="fill:none;stroke:#A0A0A0;stroke-width:4.32"/>
	<circle cx="2405.30" cy="1121.86" r="12.69" style="fill:#A0A0A0"/>
	<circle cx="2405.30" cy="1121.86" r="10.53" style="fill:none;stroke:#A0A0A0;stroke-width:4.32"/>
	<circle cx="2414.21" cy="1257.51" r="12.69" style="fill:#A0A0A0"/>
	<circle cx="2414.21" cy="1257.51" r="10.53" style="fill:none;stroke:#A0A0A0;stroke-width:4.32"/>
	<circle cx="2423.11" cy="1106.98" r="12.69" style="fill:#A0A0A0"/>
	<circle cx="2423.11" cy="1106.98" r="10.53" style="fill:none;stroke:#A0A0A0;stroke-width:4.32"/>
	<circle cx="2431.89" cy="1009.04" r="12.69" style="fill:#A0A0A0"/>
	<circle cx="2431.89" cy="1009.04" r="10.53" style="fill:none;stroke:#A0A0A0;stroke-width:4.32"/>
	<circle cx="2440.80" cy="969.42" r="12.69" style="fill:#A0A0A0"/>
	<circle cx="2440.80" cy="969.42" r="10.53" style="fill:none;stroke:#A0A0A0;stroke-width:4.32"/>
	<circle cx="2449.71" cy="1020.97" r="12.69" style="fill:#A0A0A0"/>
	<circle cx="2449.71" cy="1020.97" r="10.53" style="fill:none;stroke:#A0A0A0;stroke-width:4.32"/>
	<circle cx="2458.62" cy="1414.22" r="12.69" style="fill:#A0A0A0"/>
	<circle cx="2458.62" cy="1414.22" r="10.53" style="fill:none;stroke:#A0A0A0;stroke-width:4.32"/>
	<circle cx="2467.40" cy="1110.67" r="12.69" style="fill:#A0A0A0"/>
	<circle cx="2467.40" cy="1110.67" r="10.53" style="fill:none;stroke:#A0A0A0;stroke-width:4.32"/>
	<circle cx="2476.30" cy="1205.52" r="12.69" style="fill:#A0A0A0"/>
	<circle cx="2476.30" cy="1205.52" r="10.53" style="fill:none;stroke:#A0A0A0;stroke-width:4.32"/>
	<circle cx="2485.22" cy="1026.12" r="12.69" style="fill:#A0A0A0"/>
	<circle cx="2485.22" cy="1026.12" r="10.53" style="fill:none;stroke:#A0A0A0;stroke-width:4.32"/>
	<circle cx="2494.13" cy="1041.74" r="12.69" style="fill:#A0A0A0"/>
	<circle cx="2494.13" cy="1041.74" r="10.53" style="fill:none;stroke:#A0A0A0;stroke-width:4.32"/>
	<circle cx="2503.04" cy="1151.02" r="12.69" style="fill:#A0A0A0"/>
	<circle cx="2503.04" cy="1151.02" r="10.53" style="fill:none;stroke:#A0A0A0;stroke-width:4.32"/>
	<circle cx="2511.81" cy="1096.82" r="12.69" style="fill:#A0A0A0"/>
	<circle cx="2511.81" cy="1096.82" r="10.53" style="fill:none;stroke:#A0A0A0;stroke-width:4.32"/>
	<circle cx="2520.72" cy="1182.69" r="12.69" style="fill:#A0A0A0"/>
	<circle cx="2520.72" cy="1182.69" r="10.53" style="fill:none;stroke:#A0A0A0;stroke-width:4.32"/>
	<circle cx="2529.63" cy="1171.79" r="12.69" style="fill:#A0A0A0"/>
	<circle cx="2529.63" cy="1171.79" r="10.53" style="fill:none;stroke:#A0A0A0;stroke-width:4.32"/>
	<circle cx="2538.54" cy="1086.51" r="12.69" style="fill:#A0A0A0"/>
	<circle cx="2538.54" cy="1086.51" r="10.53" style="fill:none;stroke:#A0A0A0;stroke-width:4.32"/>
	<circle cx="2547.32" cy="1182.69" r="12.69" style="fill:#A0A0A0"/>
	<circle cx="2547.32" cy="1182.69" r="10.53" style="fill:none;stroke:#A0A0A0;stroke-width:4.32"/>
	<circle cx="2556.23" cy="866.32" r="12.69" style="fill:#A0A0A0"/>
	<circle cx="2556.23" cy="866.32" r="10.53" style="fill:none;stroke:#A0A0A0;stroke-width:4.32"/>
	<circle cx="2565.14" cy="986.51" r="12.69" style="fill:#A0A0A0"/>
	<circle cx="2565.14" cy="986.51" r="10.53" style="fill:none;stroke:#A0A0A0;stroke-width:4.32"/>
	<circle cx="2574.05" cy="1227.31" r="12.69" style="fill:#A0A0A0"/>
	<circle cx="2574.05" cy="1227.31" r="10.53" style="fill:none;stroke:#A0A0A0;stroke-width:4.32"/>
	<circle cx="2582.96" cy="1097.41" r="12.69" style="fill:#A0A0A0"/>
	<circle cx="2582.96" cy="1097.41" r="10.53" style="fill:none;stroke:#A0A0A0;stroke-width:4.32"/>
	<circle cx="2591.73" cy="1133.05" r="12.69" style="fill:#A0A0A0"/>
	<circle cx="2591.73" cy="1133.05" r="10.53" style="fill:none;stroke:#A0A0A0;stroke-width:4.32"/>
	<circle cx="2600.64" cy="1456.34" r="12.69" style="fill:#A0A0A0"/>
	<circle cx="2600.64" cy="1456.34" r="10.53" style="fill:none;stroke:#A0A0A0;stroke-width:4.32"/>
	<circle cx="2609.55" cy="1197.12" r="12.69" style="fill:#A0A0A0"/>
	<circle cx="2609.55" cy="1197.12" r="10.53" style="fill:none;stroke:#A0A0A0;stroke-width:4.32"/>
	<circle cx="2618.46" cy="998.73" r="12.69" style="fill:#A0A0A0"/>
	<circle cx="2618.46" cy="998.73" r="10.53" style="fill:none;stroke:#A0A0A0;stroke-width:4.32"/>
	<circle cx="2627.24" cy="1126.87" r="12.69" style="fill:#A0A0A0"/>
	<circle cx="2627.24" cy="1126.87" r="10.53" style="fill:none;stroke:#A0A0A0;stroke-width:4.32"/>
	<circle cx="2636.15" cy="1067.36" r="12.69" style="fill:#A0A0A0"/>
	<circle cx="2636.15" cy="1067.36" r="10.53" style="fill:none;stroke:#A0A0A0;stroke-width:4.32"/>
	<circle cx="2645.06" cy="980.17" r="12.69" style="fill:#A0A0A0"/>
	<circle cx="2645.06" cy="980.17" r="10.53" style="fill:none;stroke:#A0A0A0;stroke-width:4.32"/>
	<circle cx="2653.97" cy="1238.36" r="12.69" style="fill:#A0A0A0"/>
	<circle cx="2653.97" cy="1238.36" r="10.53" style="fill:none;stroke:#A0A0A0;stroke-width:4.32"/>
	<circle cx="2662.88" cy="1068.39" r="12.69" style="fill:#A0A0A0"/>
	<circle cx="2662.88" cy="1068.39" r="10.53" style="fill:none;stroke:#A0A0A0;stroke-width:4.32"/>
	<circle cx="2671.65" cy="1135.85" r="12.69" style="fill:#A0A0A0"/>
	<circle cx="2671.65" cy="1135.85" r="10.53" style="fill:none;stroke:#A0A0A0;stroke-width:4.32"/>
	<circle cx="2680.56" cy="985.18" r="12.69" style="fill:#A0A0A0"/>
	<circle cx="2680.56" cy="985.18" r="10.53" style="fill:none;stroke:#A0A0A0;stroke-width:4.32"/>
	<circle cx="2689.47" cy="1115.82" r="12.69" style="fill:#A0A0A0"/>
	<circle cx="2689.47" cy="1115.82" r="10.53" style="fill:none;stroke:#A0A0A0;stroke-width:4.32"/>
	<circle cx="2698.38" cy="1053.37" r="12.69" style="fill:#A0A0A0"/>
	<circle cx="2698.38" cy="1053.37" r="10.53" style="fill:none;stroke:#A0A0A0;stroke-width:4.32"/>
	<circle cx="2707.16" cy="1012.13" r="12.69" style="fill:#A0A0A0"/>
	<circle cx="2707.16" cy="1012.13" r="10.53" style="fill:none;stroke:#A0A0A0;stroke-width:4.32"/>
	<circle cx="2716.07" cy="1349.85" r="12.69" style="fill:#A0A0A0"/>
	<circle cx="2716.07" cy="1349.85" r="10.53" style="fill:none;stroke:#A0A0A0;stroke-width:4.32"/>
	<circle cx="2724.98" cy="1173.56" r="12.69" style="fill:#A0A0A0"/>
	<circle cx="2724.98" cy="1173.56" r="10.53" style="fill:none;stroke:#A0A0A0;stroke-width:4.32"/>
	<circle cx="2733.89" cy="1255.00" r="12.69" style="fill:#A0A0A0"/>
	<circle cx="2733.89" cy="1255.00" r="10.53" style="fill:none;stroke:#A0A0A0;stroke-width:4.32"/>
	<circle cx="2742.80" cy="1207.14" r="12.69" style="fill:#A0A0A0"/>
	<circle cx="2742.80" cy="1207.14" r="10.53" style="fill:none;stroke:#A0A0A0;stroke-width:4.32"/>
	<circle cx="2751.57" cy="1397.72" r="12.69" style="fill:#A0A0A0"/>
	<circle cx="2751.57" cy="1397.72" r="10.53" style="fill:none;stroke:#A0A0A0;stroke-width:4.32"/>
	<circle cx="2760.48" cy="1079.74" r="12.69" style="fill:#A0A0A0"/>
	<circle cx="2760.48" cy="1079.74" r="10.53" style="fill:none;stroke:#A0A0A0;stroke-width:4.32"/>
	<circle cx="2769.39" cy="1374.74" r="12.69" style="fill:#A0A0A0"/>
	<circle cx="2769.39" cy="1374.74" r="10.53" style="fill:none;stroke:#A0A0A0;stroke-width:4.32"/>
	<circle cx="2778.30" cy="1319.81" r="12.69" style="fill:#A0A0A0"/>
	<circle cx="2778.30" cy="1319.81" r="10.53" style="fill:none;stroke:#A0A0A0;stroke-width:4.32"/>
	<circle cx="2787.08" cy="1115.82" r="12.69" style="fill:#A0A0A0"/>
	<circle cx="2787.08" cy="1115.82" r="10.53" style="fill:none;stroke:#A0A0A0;stroke-width:4.32"/>
	<circle cx="2795.99" cy="1308.61" r="12.69" style="fill:#A0A0A0"/>
	<circle cx="2795.99" cy="1308.61" r="10.53" style="fill:none;stroke:#A0A0A0;stroke-width:4.32"/>
	<circle cx="2804.90" cy="1458.84" r="12.69" style="fill:#A0A0A0"/>
	<circle cx="2804.90" cy="1458.84" r="10.53" style="fill:none;stroke:#A0A0A0;stroke-width:4.32"/>
	<circle cx="2813.81" cy="1379.90" r="12.69" style="fill:#A0A0A0"/>
	<circle cx="2813.81" cy="1379.90" r="10.53" style="fill:none;stroke:#A0A0A0;stroke-width:4.32"/>
	<circle cx="2822.72" cy="1271.79" r="12.69" style="fill:#A0A0A0"/>
	<circle cx="2822.72" cy="1271.79" r="10.53" style="fill:none;stroke:#A0A0A0;stroke-width:4.32"/>
	<circle cx="2831.49" cy="1159.27" r="12.69" style="fill:#A0A0A0"/>
	<circle cx="2831.49" cy="1159.27" r="10.53" style="fill:none;stroke:#A0A0A0;stroke-width:4.32"/>
	<circle cx="2840.40" cy="1213.03" r="12.69" style="fill:#A0A0A0"/>
	<circle cx="2840.40" cy="1213.03" r="10.53" style="fill:none;stroke:#A0A0A0;stroke-width:4.32"/>
	<circle cx="2849.31" cy="1270.03" r="12.69" style="fill:#A0A0A0"/>
	<circle cx="2849.31" cy="1270.03" r="10.53" style="fill:none;stroke:#A0A0A0;stroke-width:4.32"/>
	<circle cx="2858.22" cy="1322.61" r="12.69" style="fill:#A0A0A0"/>
	<circle cx="2858.22" cy="1322.61" r="10.53" style="fill:none;stroke:#A0A0A0;stroke-width:4.32"/>
	<circle cx="2867.00" cy="1182.69" r="12.69" style="fill:#A0A0A0"/>
	<circle cx="2867.00" cy="1182.69" r="10.53" style="fill:none;stroke:#A0A0A0;stroke-width:4.32"/>
	<circle cx="2875.91" cy="1363.99" r="12.69" style="fill:#A0A0A0"/>
	<circle cx="2875.91" cy="1363.99" r="10.53" style="fill:none;stroke:#A0A0A0;stroke-width:4.32"/>
	<circle cx="2884.82" cy="1083.86" r="12.69" style="fill:#A0A0A0"/>
	<circle cx="2884.82" cy="1083.86" r="10.53" style="fill:none;stroke:#A0A0A0;stroke-width:4.32"/>
	<circle cx="2893.73" cy="988.57" r="12.69" style="fill:#A0A0A0"/>
	<circle cx="2893.73" cy="988.57" r="10.53" style="fill:none;stroke:#A0A0A0;stroke-width:4.32"/>
	<circle cx="2902.64" cy="1262.07" r="12.69" style="fill:#A0A0A0"/>
	<circle cx="2902.64" cy="1262.07" r="10.53" style="fill:none;stroke:#A0A0A0;stroke-width:4.32"/>
	<circle cx="2911.41" cy="1231.14" r="12.69" style="fill:#A0A0A0"/>
	<circle cx="2911.41" cy="1231.14" r="10.53" style="fill:none;stroke:#A0A0A0;stroke-width:4.32"/>
	<circle cx="2920.32" cy="1138.35" r="12.69" style="fill:#A0A0A0"/>
	<circle cx="2920.32" cy="1138.35" r="10.53" style="fill:none;stroke:#A0A0A0;stroke-width:4.32"/>
	<circle cx="2929.23" cy="982.97" r="12.69" style="fill:#A0A0A0"/>
	<circle cx="2929.23" cy="982.97" r="10.53" style="fill:none;stroke:#A0A0A0;stroke-width:4.32"/>
	<circle cx="2938.14" cy="1229.82" r="12.69" style="fill:#A0A0A0"/>
	<circle cx="2938.14" cy="1229.82" r="10.53" style="fill:none;stroke:#A0A0A0;stroke-width:4.32"/>
	<circle cx="2946.92" cy="1213.76" r="12.69" style="fill:#A0A0A0"/>
	<circle cx="2946.92" cy="1213.76" r="10.53" style="fill:none;stroke:#A0A0A0;stroke-width:4.32"/>
	<circle cx="2955.83" cy="1379.16" r="12.69" style="fill:#A0A0A0"/>
	<circle cx="2955.83" cy="1379.16" r="10.53" style="fill:none;stroke:#A0A0A0;stroke-width:4.32"/>
	<circle cx="2964.74" cy="1126.28" r="12.69" style="fill:#A0A0A0"/>
	<circle cx="2964.74" cy="1126.28" r="10.53" style="fill:none;stroke:#A0A0A0;stroke-width:4.32"/>
	<circle cx="2973.65" cy="1030.54" r="12.69" style="fill:#A0A0A0"/>
	<circle cx="2973.65" cy="1030.54" r="10.53" style="fill:none;stroke:#A0A0A0;stroke-width:4.32"/>
	<circle cx="2982.56" cy="944.23" r="12.69" style="fill:#A0A0A0"/>
	<circle cx="2982.56" cy="944.23" r="10.53" style="fill:none;stroke:#A0A0A0;stroke-width:4.32"/>
	<circle cx="2991.33" cy="1310.38" r="12.69" style="fill:#A0A0A0"/>
	<circle cx="2991.33" cy="1310.38" r="10.53" style="fill:none;stroke:#A0A0A0;stroke-width:4.32"/>
	<circle cx="3000.24" cy="1429.68" r="12.69" style="fill:#A0A0A0"/>
	<circle cx="3000.24" cy="1429.68" r="10.53" style="fill:none;stroke:#A0A0A0;stroke-width:4.32"/>
	<circle cx="3009.15" cy="1035.26" r="12.69" style="fill:#A0A0A0"/>
	<circle cx="3009.15" cy="1035.26" r="10.53" style="fill:none;stroke:#A0A0A0;stroke-width:4.32"/>
	<circle cx="3018.06" cy="1121.12" r="12.69" style="fill:#A0A0A0"/>
	<circle cx="3018.06" cy="1121.12" r="10.53" style="fill:none;stroke:#A0A0A0;stroke-width:4.32"/>
	<circle cx="3026.84" cy="932.75" r="12.69" style="fill:#A0A0A0"/>
	<circle cx="3026.84" cy="932.75" r="10.53" style="fill:none;stroke:#A0A0A0;stroke-width:4.32"/>
	<circle cx="3035.75" cy="1086.51" r="12.69" style="fill:#A0A0A0"/>
	<circle cx="3035.75" cy="1086.51" r="10.53" style="fill:none;stroke:#A0A0A0;stroke-width:4.32"/>
	<circle cx="3044.66" cy="1174.29" r="12.69" style="fill:#A0A0A0"/>
	<circle cx="3044.66" cy="1174.29" r="10.53" style="fill:none;stroke:#A0A0A0;stroke-width:4.32"/>
	<circle cx="3053.57" cy="1235.71" r="12.69" style="fill:#A0A0A0"/>
	<circle cx="3053.57" cy="1235.71" r="10.53" style="fill:none;stroke:#A0A0A0;stroke-width:4.32"/>
	<circle cx="3062.48" cy="1049.69" r="12.69" style="fill:#A0A0A0"/>
	<circle cx="3062.48" cy="1049.69" r="10.53" style="fill:none;stroke:#A0A0A0;stroke-width:4.32"/>
	<circle cx="3071.25" cy="1130.40" r="12.69" style="fill:#A0A0A0"/>
	<circle cx="3071.25" cy="1130.40" r="10.53" style="fill:none;stroke:#A0A0A0;stroke-width:4.32"/>
	<circle cx="3080.16" cy="989.60" r="12.69" style="fill:#A0A0A0"/>
	<circle cx="3080.16" cy="989.60" r="10.53" style="fill:none;stroke:#A0A0A0;stroke-width:4.32"/>
	<circle cx="3089.07" cy="1270.03" r="12.69" style="fill:#A0A0A0"/>
	<circle cx="3089.07" cy="1270.03" r="10.53" style="fill:none;stroke:#A0A0A0;stroke-width:4.32"/>
	<circle cx="3097.98" cy="1043.65" r="12.69" style="fill:#A0A0A0"/>
	<circle cx="3097.98" cy="1043.65" r="10.53" style="fill:none;stroke:#A0A0A0;stroke-width:4.32"/>
	<circle cx="3106.76" cy="1046.30" r="12.69" style="fill:#A0A0A0"/>
	<circle cx="3106.76" cy="1046.30" r="10.53" style="fill:none;stroke:#A0A0A0;stroke-width:4.32"/>
	<circle cx="3115.67" cy="1288.29" r="12.69" style="fill:#A0A0A0"/>
	<circle cx="3115.67" cy="1288.29" r="10.53" style="fill:none;stroke:#A0A0A0;stroke-width:4.32"/>
	<circle cx="3124.58" cy="934.51" r="12.69" style="fill:#A0A0A0"/>
	<circle cx="3124.58" cy="934.51" r="10.53" style="fill:none;stroke:#A0A0A0;stroke-width:4.32"/>
	<circle cx="3133.49" cy="1289.91" r="12.69" style="fill:#A0A0A0"/>
	<circle cx="3133.49" cy="1289.91" r="10.53" style="fill:none;stroke:#A0A0A0;stroke-width:4.32"/>
	<circle cx="3142.26" cy="1043.21" r="12.69" style="fill:#A0A0A0"/>
	<circle cx="3142.26" cy="1043.21" r="10.53" style="fill:none;stroke:#A0A0A0;stroke-width:4.32"/>
	<circle cx="3151.17" cy="1038.64" r="12.69" style="fill:#A0A0A0"/>
	<circle cx="3151.17" cy="1038.64" r="10.53" style="fill:none;stroke:#A0A0A0;stroke-width:4.32"/>
	<circle cx="3160.08" cy="1122.74" r="12.69" style="fill:#A0A0A0"/>
	<circle cx="3160.08" cy="1122.74" r="10.53" style="fill:none;stroke:#A0A0A0;stroke-width:4.32"/>
	<circle cx="3168.99" cy="1000.79" r="12.69" style="fill:#A0A0A0"/>
	<circle cx="3168.99" cy="1000.79" r="10.53" style="fill:none;stroke:#A0A0A0;stroke-width:4.32"/>
	<circle cx="3177.90" cy="1255.74" r="12.69" style="fill:#A0A0A0"/>
	<circle cx="3177.90" cy="1255.74" r="10.53" style="fill:none;stroke:#A0A0A0;stroke-width:4.32"/>
	<circle cx="3186.68" cy="1295.80" r="12.69" style="fill:#A0A0A0"/>
	<circle cx="3186.68" cy="1295.80" r="10.53" style="fill:none;stroke:#A0A0A0;stroke-width:4.32"/>
	<circle cx="3195.59" cy="1366.79" r="12.69" style="fill:#A0A0A0"/>
	<circle cx="3195.59" cy="1366.79" r="10.53" style="fill:none;stroke:#A0A0A0;stroke-width:4.32"/>
	<circle cx="3204.50" cy="1067.36" r="12.69" style="fill:#A0A0A0"/>
	<circle cx="3204.50" cy="1067.36" r="10.53" style="fill:none;stroke:#A0A0A0;stroke-width:4.32"/>
	<circle cx="3213.41" cy="1237.62" r="12.69" style="fill:#A0A0A0"/>
	<circle cx="3213.41" cy="1237.62" r="10.53" style="fill:none;stroke:#A0A0A0;stroke-width:4.32"/>
	<circle cx="3222.18" cy="1226.72" r="12.69" style="fill:#A0A0A0"/>
	<circle cx="3222.18" cy="1226.72" r="10.53" style="fill:none;stroke:#A0A0A0;stroke-width:4.32"/>
	<circle cx="3231.09" cy="1010.07" r="12.69" style="fill:#A0A0A0"/>
	<circle cx="3231.09" cy="1010.07" r="10.53" style="fill:none;stroke:#A0A0A0;stroke-width:4.32"/>
	<circle cx="3240.00" cy="1161.04" r="12.69" style="fill:#A0A0A0"/>
	<circle cx="3240.00" cy="1161.04" r="10.53" style="fill:none;stroke:#A0A0A0;stroke-width:4.32"/>
	<circle cx="3248.91" cy="1386.53" r="12.69" style="fill:#A0A0A0"/>
	<circle cx="3248.91" cy="1386.53" r="10.53" style="fill:none;stroke:#A0A0A0;stroke-width:4.32"/>
	<circle cx="3257.82" cy="1125.69" r="12.69" style="fill:#A0A0A0"/>
	<circle cx="3257.82" cy="1125.69" r="10.53" style="fill:none;stroke:#A0A0A0;stroke-width:4.32"/>
	<circle cx="3266.60" cy="1015.37" r="12.69" style="fill:#A0A0A0"/>
	<circle cx="3266.60" cy="1015.37" r="10.53" style="fill:none;stroke:#A0A0A0;stroke-width:4.32"/>
	<circle cx="3275.51" cy="1228.79" r="12.69" style="fill:#A0A0A0"/>
	<circle cx="3275.51" cy="1228.79" r="10.53" style="fill:none;stroke:#A0A0A0;stroke-width:4.32"/>
	<circle cx="3284.42" cy="1123.92" r="12.69" style="fill:#A0A0A0"/>
	<circle cx="3284.42" cy="1123.92" r="10.53" style="fill:none;stroke:#A0A0A0;stroke-width:4.32"/>
	<circle cx="3293.33" cy="1005.50" r="12.69" style="fill:#A0A0A0"/>
	<circle cx="3293.33" cy="1005.50" r="10.53" style="fill:none;stroke:#A0A0A0;stroke-width:4.32"/>
	<circle cx="3302.10" cy="1394.92" r="12.69" style="fill:#A0A0A0"/>
	<circle cx="3302.10" cy="1394.92" r="10.53" style="fill:none;stroke:#A0A0A0;stroke-width:4.32"/>
	<circle cx="3311.01" cy="1050.43" r="12.69" style="fill:#A0A0A0"/>
	<circle cx="3311.01" cy="1050.43" r="10.53" style="fill:none;stroke:#A0A0A0;stroke-width:4.32"/>
	<circle cx="3319.92" cy="1015.37" r="12.69" style="fill:#A0A0A0"/>
	<circle cx="3319.92" cy="1015.37" r="10.53" style="fill:none;stroke:#A0A0A0;stroke-width:4.32"/>
	<circle cx="3328.83" cy="1294.18" r="12.69" style="fill:#A0A0A0"/>
	<circle cx="3328.83" cy="1294.18" r="10.53" style="fill:none;stroke:#A0A0A0;stroke-width:4.32"/>
	<circle cx="3337.74" cy="1161.04" r="12.69" style="fill:#A0A0A0"/>
	<circle cx="3337.74" cy="1161.04" r="10.53" style="fill:none;stroke:#A0A0A0;stroke-width:4.32"/>
	<circle cx="3346.52" cy="1057.20" r="12.69" style="fill:#A0A0A0"/>
	<circle cx="3346.52" cy="1057.20" r="10.53" style="fill:none;stroke:#A0A0A0;stroke-width:4.32"/>
	<circle cx="3355.43" cy="1175.47" r="12.69" style="fill:#A0A0A0"/>
	<circle cx="3355.43" cy="1175.47" r="10.53" style="fill:none;stroke:#A0A0A0;stroke-width:4.32"/>
	<circle cx="3364.34" cy="1349.85" r="12.69" style="fill:#A0A0A0"/>
	<circle cx="3364.34" cy="1349.85" r="10.53" style="fill:none;stroke:#A0A0A0;stroke-width:4.32"/>
	<circle cx="3373.25" cy="1321.28" r="12.69" style="fill:#A0A0A0"/>
	<circle cx="3373.25" cy="1321.28" r="10.53" style="fill:none;stroke:#A0A0A0;stroke-width:4.32"/>
	<circle cx="3382.02" cy="1486.09" r="12.69" style="fill:#A0A0A0"/>
	<circle cx="3382.02" cy="1486.09" r="10.53" style="fill:none;stroke:#A0A0A0;stroke-width:4.32"/>
	<circle cx="3390.93" cy="1143.36" r="12.69" style="fill:#A0A0A0"/>
	<circle cx="3390.93" cy="1143.36" r="10.53" style="fill:none;stroke:#A0A0A0;stroke-width:4.32"/>
	<circle cx="3399.84" cy="1097.41" r="12.69" style="fill:#A0A0A0"/>
	<circle cx="3399.84" cy="1097.41" r="10.53" style="fill:none;stroke:#A0A0A0;stroke-width:4.32"/>
	<circle cx="3408.75" cy="1103.45" r="12.69" style="fill:#A0A0A0"/>
	<circle cx="3408.75" cy="1103.45" r="10.53" style="fill:none;stroke:#A0A0A0;stroke-width:4.32"/>
	<circle cx="3417.66" cy="799.01" r="12.69" style="fill:#A0A0A0"/>
	<circle cx="3417.66" cy="799.01" r="10.53" style="fill:none;stroke:#A0A0A0;stroke-width:4.32"/>
	<circle cx="3426.44" cy="1104.92" r="12.69" style="fill:#A0A0A0"/>
	<circle cx="3426.44" cy="1104.92" r="10.53" style="fill:none;stroke:#A0A0A0;stroke-width:4.32"/>
	<circle cx="3435.35" cy="1001.82" r="12.69" style="fill:#A0A0A0"/>
	<circle cx="3435.35" cy="1001.82" r="10.53" style="fill:none;stroke:#A0A0A0;stroke-width:4.32"/>
	<circle cx="3444.26" cy="1286.08" r="12.69" style="fill:#A0A0A0"/>
	<circle cx="3444.26" cy="1286.08" r="10.53" style="fill:none;stroke:#A0A0A0;stroke-width:4.32"/>
	<circle cx="3453.17" cy="1263.10" r="12.69" style="fill:#A0A0A0"/>
	<circle cx="3453.17" cy="1263.10" r="10.53" style="fill:none;stroke:#A0A0A0;stroke-width:4.32"/>
	<circle cx="3461.94" cy="980.17" r="12.69" style="fill:#A0A0A0"/>
	<circle cx="3461.94" cy="980.17" r="10.53" style="fill:none;stroke:#A0A0A0;stroke-width:4.32"/>
	<circle cx="3470.85" cy="998.73" r="12.69" style="fill:#A0A0A0"/>
	<circle cx="3470.85" cy="998.73" r="10.53" style="fill:none;stroke:#A0A0A0;stroke-width:4.32"/>
	<circle cx="3479.76" cy="1349.85" r="12.69" style="fill:#A0A0A0"/>
	<circle cx="3479.76" cy="1349.85" r="10.53" style="fill:none;stroke:#A0A0A0;stroke-width:4.32"/>
	<circle cx="3488.67" cy="1379.90" r="12.69" style="fill:#A0A0A0"/>
	<circle cx="3488.67" cy="1379.90" r="10.53" style="fill:none;stroke:#A0A0A0;stroke-width:4.32"/>
	<circle cx="3497.58" cy="924.20" r="12.69" style="fill:#A0A0A0"/>
	<circle cx="3497.58" cy="924.20" r="10.53" style="fill:none;stroke:#A0A0A0;stroke-width:4.32"/>
	<circle cx="3506.36" cy="1115.82" r="12.69" style="fill:#A0A0A0"/>
	<circle cx="3506.36" cy="1115.82" r="10.53" style="fill:none;stroke:#A0A0A0;stroke-width:4.32"/>
	<circle cx="3515.27" cy="1212.14" r="12.69" style="fill:#A0A0A0"/>
	<circle cx="3515.27" cy="1212.14" r="10.53" style="fill:none;stroke:#A0A0A0;stroke-width:4.32"/>
	<circle cx="3524.18" cy="730.08" r="12.69" style="fill:#A0A0A0"/>
	<circle cx="3524.18" cy="730.08" r="10.53" style="fill:none;stroke:#A0A0A0;stroke-width:4.32"/>
	<circle cx="3533.09" cy="1479.91" r="12.69" style="fill:#A0A0A0"/>
	<circle cx="3533.09" cy="1479.91" r="10.53" style="fill:none;stroke:#A0A0A0;stroke-width:4.32"/>
	<circle cx="3541.86" cy="848.21" r="12.69" style="fill:#A0A0A0"/>
	<circle cx="3541.86" cy="848.21" r="10.53" style="fill:none;stroke:#A0A0A0;stroke-width:4.32"/>
	<circle cx="3550.77" cy="1314.36" r="12.69" style="fill:#A0A0A0"/>
	<circle cx="3550.77" cy="1314.36" r="10.53" style="fill:none;stroke:#A0A0A0;stroke-width:4.32"/>
	<circle cx="3559.68" cy="1306.55" r="12.69" style="fill:#A0A0A0"/>
	<circle cx="3559.68" cy="1306.55" r="10.53" style="fill:none;stroke:#A0A0A0;stroke-width:4.32"/>
	<circle cx="3568.59" cy="1209.35" r="12.69" style="fill:#A0A0A0"/>
	<circle cx="3568.59" cy="1209.35" r="10.53" style="fill:none;stroke:#A0A0A0;stroke-width:4.32"/>
	<circle cx="3577.50" cy="1182.69" r="12.69" style="fill:#A0A0A0"/>
	<circle cx="3577.50" cy="1182.69" r="10.53" style="fill:none;stroke:#A0A0A0;stroke-width:4.32"/>
	<circle cx="3586.28" cy="1349.85" r="12.69" style="fill:#A0A0A0"/>
	<circle cx="3586.28" cy="1349.85" r="10.53" style="fill:none;stroke:#A0A0A0;stroke-width:4.32"/>
	<circle cx="3595.19" cy="1067.36" r="12.69" style="fill:#A0A0A0"/>
	<circle cx="3595.19" cy="1067.36" r="10.53" style="fill:none;stroke:#A0A0A0;stroke-width:4.32"/>
	<circle cx="3604.10" cy="1199.77" r="12.69" style="fill:#A0A0A0"/>
	<circle cx="3604.10" cy="1199.77" r="10.53" style="fill:none;stroke:#A0A0A0;stroke-width:4.32"/>
	<circle cx="3613.01" cy="1165.01" r="12.69" style="fill:#A0A0A0"/>
	<circle cx="3613.01" cy="1165.01" r="10.53" style="fill:none;stroke:#A0A0A0;stroke-width:4.32"/>
	<circle cx="3621.78" cy="1212.14" r="12.69" style="fill:#A0A0A0"/>
	<circle cx="3621.78" cy="1212.14" r="10.53" style="fill:none;stroke:#A0A0A0;stroke-width:4.32"/>
	<circle cx="3630.69" cy="825.08" r="12.69" style="fill:#A0A0A0"/>
	<circle cx="3630.69" cy="825.08" r="10.53" style="fill:none;stroke:#A0A0A0;stroke-width:4.32"/>
	<circle cx="3639.60" cy="1085.48" r="12.69" style="fill:#A0A0A0"/>
	<circle cx="3639.60" cy="1085.48" r="10.53" style="fill:none;stroke:#A0A0A0;stroke-width:4.32"/>
	<circle cx="3648.51" cy="688.11" r="12.69" style="fill:#A0A0A0"/>
	<circle cx="3648.51" cy="688.11" r="10.53" style="fill:none;stroke:#A0A0A0;stroke-width:4.32"/>
	<circle cx="3657.42" cy="915.07" r="12.69" style="fill:#A0A0A0"/>
	<circle cx="3657.42" cy="915.07" r="10.53" style="fill:none;stroke:#A0A0A0;stroke-width:4.32"/>
	<circle cx="3666.20" cy="1089.75" r="12.69" style="fill:#A0A0A0"/>
	<circle cx="3666.20" cy="1089.75" r="10.53" style="fill:none;stroke:#A0A0A0;stroke-width:4.32"/>
	<circle cx="3675.11" cy="558.79" r="12.69" style="fill:#A0A0A0"/>
	<circle cx="3675.11" cy="558.79" r="10.53" style="fill:none;stroke:#A0A0A0;stroke-width:4.32"/>
	<circle cx="3684.02" cy="934.51" r="12.69" style="fill:#A0A0A0"/>
	<circle cx="3684.02" cy="934.51" r="10.53" style="fill:none;stroke:#A0A0A0;stroke-width:4.32"/>
	<circle cx="3692.93" cy="1393.30" r="12.69" style="fill:#A0A0A0"/>
	<circle cx="3692.93" cy="1393.30" r="10.53" style="fill:none;stroke:#A0A0A0;stroke-width:4.32"/>
	<circle cx="3701.70" cy="744.37" r="12.69" style="fill:#A0A0A0"/>
	<circle cx="3701.70" cy="744.37" r="10.53" style="fill:none;stroke:#A0A0A0;stroke-width:4.32"/>
	<circle cx="3710.61" cy="881.64" r="12.69" style="fill:#A0A0A0"/>
	<circle cx="3710.61" cy="881.64" r="10.53" style="fill:none;stroke:#A0A0A0;stroke-width:4.32"/>
	<circle cx="3719.52" cy="910.80" r="12.69" style="fill:#A0A0A0"/>
	<circle cx="3719.52" cy="910.80" r="10.53" style="fill:none;stroke:#A0A0A0;stroke-width:4.32"/>
	<circle cx="3728.43" cy="1349.85" r="12.69" style="fill:#A0A0A0"/>
	<circle cx="3728.43" cy="1349.85" r="10.53" style="fill:none;stroke:#A0A0A0;stroke-width:4.32"/>
	<circle cx="3737.34" cy="1904.52" r="12.69" style="fill:#A0A0A0"/>
	<circle cx="3737.34" cy="1904.52" r="10.53" style="fill:none;stroke:#A0A0A0;stroke-width:4.32"/>
	<circle cx="3746.12" cy="1479.91" r="12.69" style="fill:#A0A0A0"/>
	<circle cx="3746.12" cy="1479.91" r="10.53" style="fill:none;stroke:#A0A0A0;stroke-width:4.32"/>
	<circle cx="3755.03" cy="647.46" r="12.69" style="fill:#A0A0A0"/>
	<circle cx="3755.03" cy="647.46" r="10.53" style="fill:none;stroke:#A0A0A0;stroke-width:4.32"/>
	<circle cx="3763.94" cy="1015.37" r="12.69" style="fill:#A0A0A0"/>
	<circle cx="3763.94" cy="1015.37" r="10.53" style="fill:none;stroke:#A0A0A0;stroke-width:4.32"/>
	<circle cx="3772.85" cy="491.34" r="12.69" style="fill:#A0A0A0"/>
	<circle cx="3772.85" cy="491.34" r="10.53" style="fill:none;stroke:#A0A0A0;stroke-width:4.32"/>
	<circle cx="3781.62" cy="848.21" r="12.69" style="fill:#A0A0A0"/>
	<circle cx="3781.62" cy="848.21" r="10.53" style="fill:none;stroke:#A0A0A0;stroke-width:4.32"/>
	<circle cx="3790.53" cy="1203.60" r="12.69" style="fill:#A0A0A0"/>
	<circle cx="3790.53" cy="1203.60" r="10.53" style="fill:none;stroke:#A0A0A0;stroke-width:4.32"/>
	<circle cx="3799.44" cy="1349.85" r="12.69" style="fill:#A0A0A0"/>
	<circle cx="3799.44" cy="1349.85" r="10.53" style="fill:none;stroke:#A0A0A0;stroke-width:4.32"/>
	<circle cx="3808.35" cy="881.64" r="12.69" style="fill:#A0A0A0"/>
	<circle cx="3808.35" cy="881.64" r="10.53" style="fill:none;stroke:#A0A0A0;stroke-width:4.32"/>
	<circle cx="3817.13" cy="1545.00" r="12.69" style="fill:#A0A0A0"/>
	<circle cx="3817.13" cy="1545.00" r="10.53" style="fill:none;stroke:#A0A0A0;stroke-width:4.32"/>
	<circle cx="3826.04" cy="569.40" r="12.69" style="fill:#A0A0A0"/>
	<circle cx="3826.04" cy="569.40" r="10.53" style="fill:none;stroke:#A0A0A0;stroke-width:4.32"/>
	<circle cx="3834.95" cy="959.70" r="12.69" style="fill:#A0A0A0"/>
	<circle cx="3834.95" cy="959.70" r="10.53" style="fill:none;stroke:#A0A0A0;stroke-width:4.32"/>
	<circle cx="3843.86" cy="498.41" r="12.69" style="fill:#A0A0A0"/>
	<circle cx="3843.86" cy="498.41" r="10.53" style="fill:none;stroke:#A0A0A0;stroke-width:4.32"/>
	<circle cx="3852.77" cy="817.72" r="12.69" style="fill:#A0A0A0"/>
	<circle cx="3852.77" cy="817.72" r="10.53" style="fill:none;stroke:#A0A0A0;stroke-width:4.32"/>
	<circle cx="3861.54" cy="959.70" r="12.69" style="fill:#A0A0A0"/>
	<circle cx="3861.54" cy="959.70" r="10.53" style="fill:none;stroke:#A0A0A0;stroke-width:4.32"/>
	<circle cx="3870.45" cy="764.55" r="12.69" style="fill:#A0A0A0"/>
	<circle cx="3870.45" cy="764.55" r="10.53" style="fill:none;stroke:#A0A0A0;stroke-width:4.32"/>
	<circle cx="3879.36" cy="817.72" r="12.69" style="fill:#A0A0A0"/>
	<circle cx="3879.36" cy="817.72" r="10.53" style="fill:none;stroke:#A0A0A0;stroke-width:4.32"/>
	<circle cx="3888.27" cy="959.70" r="12.69" style="fill:#A0A0A0"/>
	<circle cx="3888.27" cy="959.70" r="10.53" style="fill:none;stroke:#A0A0A0;stroke-width:4.32"/>
	<circle cx="3897.05" cy="569.40" r="12.69" style="fill:#A0A0A0"/>
	<circle cx="3897.05" cy="569.40" r="10.53" style="fill:none;stroke:#A0A0A0;stroke-width:4.32"/>
	<circle cx="3905.96" cy="647.46" r="12.69" style="fill:#A0A0A0"/>
	<circle cx="3905.96" cy="647.46" r="10.53" style="fill:none;stroke:#A0A0A0;stroke-width:4.32"/>
	<circle cx="3914.87" cy="179.10" r="12.69" style="fill:#A0A0A0"/>
	<circle cx="3914.87" cy="179.10" r="10.53" style="fill:none;stroke:#A0A0A0;stroke-width:4.32"/>
	<circle cx="3923.78" cy="647.46" r="12.69" style="fill:#A0A0A0"/>
	<circle cx="3923.78" cy="647.46" r="10.53" style="fill:none;stroke:#A0A0A0;stroke-width:4.32"/>
	<circle cx="3932.69" cy="959.70" r="12.69" style="fill:#A0A0A0"/>
	<circle cx="3932.69" cy="959.70" r="10.53" style="fill:none;stroke:#A0A0A0;stroke-width:4.32"/>
	<circle cx="3941.46" cy="2052.40" r="12.69" style="fill:#A0A0A0"/>
	<circle cx="3941.46" cy="2052.40" r="10.53" style="fill:none;stroke:#A0A0A0;stroke-width:4.32"/>
	<circle cx="3950.37" cy="647.46" r="12.69" style="fill:#A0A0A0"/>
	<circle cx="3950.37" cy="647.46" r="10.53" style="fill:none;stroke:#A0A0A0;stroke-width:4.32"/>
	<circle cx="3959.28" cy="1349.85" r="12.69" style="fill:#A0A0A0"/>
	<circle cx="3959.28" cy="1349.85" r="10.53" style="fill:none;stroke:#A0A0A0;stroke-width:4.32"/>
	<circle cx="3968.19" cy="179.10" r="12.69" style="fill:#A0A0A0"/>
	<circle cx="3968.19" cy="179.10" r="10.53" style="fill:none;stroke:#A0A0A0;stroke-width:4.32"/>
	<circle cx="3976.97" cy="1349.85" r="12.69" style="fill:#A0A0A0"/>
	<circle cx="3976.97" cy="1349.85" r="10.53" style="fill:none;stroke:#A0A0A0;stroke-width:4.32"/>
	<circle cx="3985.88" cy="179.10" r="12.69" style="fill:#A0A0A0"/>
	<circle cx="3985.88" cy="179.10" r="10.53" style="fill:none;stroke:#A0A0A0;stroke-width:4.32"/>
	<circle cx="3994.79" cy="959.70" r="12.69" style="fill:#A0A0A0"/>
	<circle cx="3994.79" cy="959.70" r="10.53" style="fill:none;stroke:#A0A0A0;stroke-width:4.32"/>
	<circle cx="4003.70" cy="179.10" r="12.69" style="fill:#A0A0A0"/>
	<circle cx="4003.70" cy="179.10" r="10.53" style="fill:none;stroke:#A0A0A0;stroke-width:4.32"/>
	<circle cx="4012.61" cy="959.70" r="12.69" style="fill:#A0A0A0"/>
	<circle cx="4012.61" cy="959.70" r="10.53" style="fill:none;stroke:#A0A0A0;stroke-width:4.32"/>
	<path d=" M348.17 2520.61 L351.41 2520.61 L354.51 2520.61 L357.75 2520.61 L360.99 2520.61 L364.23 2520.61 L367.34 2520.61 L370.58 2520.61 L373.82 2520.61 L377.06 2520.61 L380.16 2520.61 L383.40 2520.61 L386.64 2520.61 L389.88 2520.61 L392.99 2520.61 L396.23 2520.61 L399.47 2520.61 L402.71 2520.61 L405.81 2520.61 L409.05 2520.61 L412.29 2520.61 L415.53 2520.61 L418.64 2520.61 L421.88 2520.61 L425.12 2520.61 L428.36 2520.61 L431.46 2520.61 L434.70 2520.61 L437.94 2520.61 L441.18 2520.61 L444.29 2520.61 L447.53 2520.61 L450.77 2520.61 L453.87 2520.61 L457.11 2520.61 L460.35 2520.61 L463.59 2520.61 L466.70 2520.61 L469.94 2520.61 L473.18 2520.61 L476.42 2520.61 L479.52 2520.61 L482.76 2520.61 L486.00 2520.61 L489.24 2520.61 L492.35 2520.61 L495.59 2520.61 L498.83 2520.61 L502.07 2520.61 L505.17 2520.61 L508.41 2520.61 L511.65 2520.61 L514.89 2520.61 L518.00 2520.61 L521.24 2520.61 L524.48 2520.61 L527.72 2520.61 L530.82 2520.61 L534.06 2520.61 L537.30 2520.61 L540.54 2520.61 L543.65 2520.61 L546.89 2520.61 L550.13 2520.61 L553.37 2520.61 L556.47 2520.61 L559.71 2520.61 L562.95 2520.61 L566.19 2520.61 L569.29 2520.61 L572.54 2520.61 L575.78 2520.61 L579.02 2520.61 L582.12 2520.61 L585.36 2520.61 L588.60 2520.61 L591.84 2520.61 L594.95 2520.61 L598.18 2520.61 L601.42 2520.61 L604.67 2520.61 L607.77 2520.61 L611.01 2520.61 L614.25 2520.61 L617.49 2520.61 L620.60 2520.61 L623.84 2520.61 L627.08 2520.61 L630.32 2520.61 L633.42 2520.61 L636.66 2520.61 L639.90 2520.61 L643.14 2520.61 L646.25 2520.61 L649.49 2520.61 L652.73 2520.61 L655.97 2520.61 L659.07 2520.61 L662.31 2520.61 L665.55 2520.61 L668.79 2520.61 L671.90 2520.61 L675.14 2520.61 L678.38 2520.61 L681.62 2520.61 L684.72 2520.61 L687.96 2520.61 L691.20 2520.61 L694.44 2520.61 L697.55 2520.61 L700.79 2520.61 L704.03 2520.61 L707.27 2520.61 L710.37 2520.61 L713.61 2520.61 L716.85 2520.61 L720.09 2520.61 L723.20 2520.61 L726.44 2520.61 L729.68 2520.61 L732.92 2520.61 L736.02 2520.61 L739.26 2520.61 L742.50 2520.61 L745.74 2520.61 L748.85 2520.61 L752.09 2520.61 L755.33 2520.61 L758.57 2520.61 L761.67 2520.61 L764.91 2520.61 L768.15 2520.61 L771.39 2520.61 L774.50 2520.61 L777.74 2520.61 L780.98 2520.61 L784.22 2520.61 L787.32 2520.61 L790.56 2520.61 L793.80 2520.61 L797.04 2520.61 L800.15 2520.61 L803.39 2520.61 L806.63 2520.61 L809.87 2520.61 L812.97 2520.61 L816.21 2520.61 L819.45 2520.61 L822.69 2520.61 L825.80 2520.61 L829.04 2520.61 L832.28 2520.61 L835.52 2520.61 L838.62 2520.61 L841.86 2520.61 L845.10 2520.61 L848.34 2520.61 L851.45 2520.61 L854.69 2520.61 L857.93 2520.61 L861.17 2520.61 L864.27 2520.61 L867.51 2520.61 L870.75 2520.61 L873.99 2520.61 L877.10 2520.61 L880.34 2520.61 L883.58 2520.61 L886.82 2520.61 L889.92 2520.61 L893.16 2520.61 L896.40 2520.61 L899.64 2520.61 L902.75 2520.61 L905.99 2520.61 L909.23 2520.61 L912.47 2520.61 L915.57 2520.61 L918.81 2520.61 L922.05 2520.61 L925.29 2520.61 L928.40 2520.61 L931.64 2520.61 L934.88 2520.61 L938.12 2520.61 L941.22 2520.61 L944.46 2520.61 L947.70 2520.61 L950.94 2520.61 L954.05 2520.61 L957.29 2520.61 L960.53 2520.61 L963.77 2520.61 L966.87 2520.61 L970.11 2520.61 L973.35 2520.61 L976.59 2520.61 L979.70 2520.61 L982.94 2520.61 L986.18 2520.61 L989.42 2520.61 L992.52 2520.61 L995.76 2520.61 L999.00 2520.61 L1002.24 2520.61 L1005.35 2520.61 L1008.59 2520.61 L1011.83 2520.61 L1015.07 2520.61 L1018.17 2520.61 L1021.41 2520.61 L1024.65 2520.61 L1027.89 2520.61 L1030.99 2520.61 L1034.23 2520.61 L1037.47 2520.61 L1040.71 2520.61 L1043.82 2520.61 L1047.06 2520.61 L1050.30 2520.61 L1053.54 2520.61 L1056.65 2520.61 L1059.89 2520.61 L1063.13 2520.61 L1066.37 2520.61 L1069.47 2520.61 L1072.71 2520.61 L1075.95 2520.61 L1079.19 2520.61 L1082.30 2520.61 L1085.54 2520.61 L1088.78 2520.61 L1092.02 2520.61 L1095.12 2520.61 L1098.36 2520.61 L1101.60 2520.61 L1104.84 2520.61 L1107.95 2520.61 L1111.19 2520.61 L1114.43 2520.61 L1117.67 2520.61 L1120.77 2520.61 L1124.01 2520.61 L1127.25 2520.61 L1130.49 2520.61 L1133.60 2520.61 L1136.84 2520.61 L1140.08 2520.61 L1143.32 2520.61 L1146.42 2520.61 L1149.66 2520.61 L1152.90 2520.61 L1156.14 2520.61 L1159.24 2520.61 L1162.48 2520.61 L1165.72 2520.61 L1168.96 2520.61 L1172.07 2520.61 L1175.31 2520.61 L1178.55 2520.61 L1181.79 2520.61 L1184.90 2520.61 L1188.14 2520.61 L1191.38 2520.61 L1194.62 2520.61 L1197.72 2520.61 L1200.96 2520.61 L1204.20 2520.61 L1207.44 2520.61 L1210.55 2520.61 L1213.79 2520.61 L1217.03 2520.61 L1220.27 2520.61 L1223.37 2520.61 L1226.61 2520.61 L1229.85 2520.61 L1233.09 2520.61 L1236.20 2520.61 L1239.44 2520.61 L1242.68 2520.61 L1245.92 2520.61 L1249.02 2520.61 L1252.26 2520.61 L1255.50 2520.61 L1258.74 2520.61 L1261.85 2520.61 L1265.09 2520.61 L1268.33 2520.61 L1271.57 2520.61 L1274.67 2520.61 L1277.91 2520.61 L1281.15 2520.61 L1284.39 2520.61 L1287.49 2520.61 L1290.73 2520.61 L1293.97 2520.61 L1297.21 2520.61 L1300.32 2520.61 L1303.56 2520.61 L1306.80 2520.61 L1310.04 2520.61 L1313.15 2520.61 L1316.39 2520.61 L1319.63 2520.61 L1322.73 2520.61 L1325.97 2520.61 L1329.21 2520.61 L1332.45 2520.61 L1335.56 2520.61 L1338.80 2520.61 L1342.04 2520.61 L1345.28 2520.61 L1348.38 2520.61 L1351.62 2520.61 L1354.86 2520.61 L1358.10 2520.61 L1361.21 2520.61 L1364.45 2520.61 L1367.69 2520.61 L1370.93 2520.61 L1374.03 2520.61 L1377.27 2520.61 L1380.51 2520.61 L1383.75 2520.61 L1386.86 2520.61 L1390.10 2520.61 L1393.34 2520.61 L1396.58 2520.61 L1399.68 2520.61 L1402.92 2520.61 L1406.16 2520.61 L1409.40 2520.61 L1412.51 2520.61 L1415.75 2520.61 L1418.99 2520.61 L1422.23 2520.61 L1425.33 2520.61 L1428.57 2520.61 L1431.81 2520.61 L1435.05 2520.61 L1438.16 2520.61 L1441.40 2520.61 L1444.64 2520.61 L1447.88 2520.61 L1450.98 2520.61 L1454.22 2520.61 L1457.46 2520.61 L1460.70 2520.61 L1463.81 2520.61 L1467.05 2520.61 L1470.29 2520.61 L1473.53 2520.61 L1476.63 2520.61 L1479.87 2520.61 L1483.11 2520.61 L1486.35 2520.61 L1489.46 2520.61 L1492.70 2520.61 L1495.94 2520.61 L1499.18 2520.61 L1502.28 2520.61 L1505.52 2520.61 L1508.76 2520.61 L1512.00 2520.61 L1515.11 2520.61 L1518.35 2520.61 L1521.59 2520.61 L1524.83 2520.61 L1527.93 2520.61 L1531.17 2520.61 L1534.41 2520.61 L1537.65 2520.61 L1540.76 2520.61 L1544.00 2520.61 L1547.24 2520.61 L1550.48 2520.61 L1553.58 2520.61 L1556.82 2520.61 L1560.06 2520.61 L1563.30 2520.61 L1566.41 2520.61 L1569.65 2520.61 L1572.89 2520.61 L1576.13 2520.61 L1579.23 2520.61 L1582.47 2520.61 L1585.71 2520.61 L1588.95 2520.61 L1592.06 2520.61 L1595.30 2520.61 L1598.54 2520.61 L1601.78 2520.61 L1604.88 2520.61 L1608.12 2520.61 L1611.36 2520.61 L1614.60 2520.61 L1617.71 2520.61 L1620.95 2520.61 L1624.19 2520.61 L1627.43 2520.61 L1630.53 2520.61 L1633.77 2520.61 L1637.01 2520.61 L1640.25 2520.61 L1643.36 2520.61 L1646.60 2520.61 L1649.84 2520.61 L1653.08 2520.61 L1656.18 2520.61 L1659.42 2520.61 L1662.66 2520.61 L1665.90 2520.61 L1669.01 2520.61 L1672.25 2520.61 L1675.49 2520.61 L1678.73 2520.61 L1681.83 2520.61 L1685.07 2520.61 L1688.31 2520.61 L1691.55 2520.61 L1694.66 2520.61 L1697.90 2520.61 L1701.14 2520.61 L1704.38 2520.61 L1707.48 2520.61 L1710.72 2520.61 L1713.96 2520.61 L1717.20 2520.61 L1720.31 2520.61 L1723.55 2520.61 L1726.79 2520.61 L1730.03 2520.61 L1733.13 2520.61 L1736.37 2520.61 L1739.61 2520.61 L1742.85 2520.61 L1745.96 2520.61 L1749.20 2520.61 L1752.44 2520.61 L1755.68 2520.61 L1758.78 2520.61 L1762.02 2520.61 L1765.26 2520.61 L1768.50 2520.61 L1771.61 2520.61 L1774.85 2520.61 L1778.09 2520.61 L1781.33 2520.61 L1784.43 2520.61 L1787.67 2520.61 L1790.91 2520.61 L1794.15 2520.61 L1797.26 2520.61 L1800.50 2520.61 L1803.74 2520.61 L1806.98 2520.61 L1810.08 2520.61 L1813.32 2520.61 L1816.56 2520.61 L1819.80 2520.61 L1822.91 2520.61 L1826.15 2520.61 L1829.39 2520.61 L1832.63 2520.61 L1835.73 2520.61 L1838.97 2520.61 L1842.21 2520.61 L1845.45 2520.61 L1848.56 2520.61 L1851.80 2520.61 L1855.04 2520.61 L1858.28 2520.61 L1861.38 2520.61 L1864.62 2520.61 L1867.86 2520.61 L1871.10 2520.61 L1874.21 2520.61 L1877.45 2520.61 L1880.69 2520.61 L1883.93 2520.61 L1887.03 2520.61 L1890.27 2520.61 L1893.51 2520.61 L1896.75 2520.61 L1899.86 2520.61 L1903.10 2520.61 L1906.34 2520.61 L1909.58 2520.61 L1912.68 2520.61 L1915.92 2520.61 L1919.16 2520.61 L1922.40 2520.61 L1925.51 2520.61 L1928.75 2520.61 L1931.99 2520.61 L1935.23 2520.61 L1938.33 2520.61 L1941.57 2520.61 L1944.81 2520.61 L1948.05 2520.61" stroke-linejoin="round" style="fill:none;stroke:#000000;stroke-width:7.20"/>
	<path d=" M1948.05 1048.95 L1952.10 1049.98 L1956.29 1051.02 L1960.47 1052.05 L1964.52 1053.08 L1968.71 1053.96 L1972.89 1054.99 L1977.08 1056.02 L1981.13 1057.05 L1985.31 1057.94 L1989.50 1058.97 L1993.55 1059.85 L1997.73 1060.88 L2001.92 1061.77 L2006.10 1062.80 L2010.15 1063.68 L2014.34 1064.57 L2018.52 1065.45 L2022.57 1066.33 L2026.76 1067.36 L2030.94 1068.25 L2035.13 1069.13 L2039.18 1070.02 L2043.36 1070.75 L2047.55 1071.64 L2051.59 1072.52 L2055.78 1073.40 L2059.97 1074.29 L2064.15 1075.02 L2068.20 1075.91 L2072.39 1076.79 L2076.57 1077.53 L2080.62 1078.41 L2084.80 1079.15 L2088.99 1080.03 L2093.18 1080.77 L2097.23 1081.50 L2101.41 1082.39 L2105.59 1083.12 L2109.65 1083.86 L2113.83 1084.60 L2118.02 1085.33 L2122.20 1086.22 L2126.25 1086.95 L2130.44 1087.69 L2134.62 1088.43 L2138.67 1089.16 L2142.86 1089.90 L2147.04 1090.63 L2151.23 1091.22 L2155.28 1091.96 L2159.46 1092.70 L2163.65 1093.43 L2167.70 1094.17 L2171.88 1094.76 L2176.07 1095.50 L2180.25 1096.23 L2184.30 1096.82 L2188.49 1097.56 L2192.67 1098.29 L2196.72 1098.88 L2200.91 1099.62 L2205.09 1100.21 L2209.28 1100.94 L2213.32 1101.53 L2217.51 1102.12 L2221.70 1102.86 L2225.75 1103.45 L2229.93 1104.04 L2234.11 1104.77 L2238.17 1105.36 L2242.35 1105.95 L2246.54 1106.69 L2250.72 1107.28 L2254.77 1107.87 L2258.96 1108.46 L2263.14 1109.05 L2267.19 1109.63 L2271.38 1110.37 L2275.56 1110.96 L2279.75 1111.55 L2283.80 1112.14 L2287.98 1112.73 L2292.17 1113.32 L2296.22 1113.91 L2300.40 1114.49 L2304.59 1115.08 L2308.77 1115.67 L2312.82 1116.11 L2317.01 1116.70 L2321.19 1117.29 L2325.24 1117.88 L2329.43 1118.47 L2333.61 1119.06 L2337.80 1119.50 L2341.84 1120.09 L2346.03 1120.68 L2350.22 1121.27 L2354.27 1121.71 L2358.45 1122.30 L2362.64 1122.89 L2366.82 1123.48 L2370.87 1123.92 L2375.05 1124.51 L2379.24 1124.95 L2383.29 1125.54 L2387.48 1126.13 L2391.66 1126.57 L2395.84 1127.16 L2399.90 1127.60 L2404.08 1128.19 L2408.27 1128.78 L2412.32 1129.22 L2416.50 1129.81 L2420.69 1130.25 L2424.87 1130.84 L2428.92 1131.28 L2433.11 1131.73 L2437.29 1132.32 L2441.34 1132.76 L2445.53 1133.35 L2449.71 1133.79 L2453.90 1134.38 L2457.95 1134.82 L2462.13 1135.26 L2466.32 1135.85 L2470.36 1136.29 L2474.55 1136.73 L2478.74 1137.32 L2482.92 1137.77 L2486.97 1138.21 L2491.16 1138.80 L2495.34 1139.24 L2499.39 1139.68 L2503.57 1140.12 L2507.76 1140.71 L2511.95 1141.15 L2516.00 1141.59 L2520.18 1142.04 L2524.36 1142.48 L2528.42 1143.07 L2532.60 1143.51 L2536.79 1143.95 L2540.97 1144.39 L2545.02 1144.84 L2549.21 1145.28 L2553.39 1145.87 L2557.44 1146.31 L2561.63 1146.75 L2565.81 1147.19 L2570.00 1147.63 L2574.05 1148.08 L2578.23 1148.52 L2582.42 1148.96 L2586.47 1149.40 L2590.65 1149.84 L2594.84 1150.28 L2599.02 1150.73 L2603.07 1151.17 L2607.26 1151.61 L2611.44 1152.05 L2615.49 1152.49 L2619.68 1152.94 L2623.86 1153.38 L2628.05 1153.82 L2632.10 1154.26 L2636.28 1154.70 L2640.47 1155.00 L2644.52 1155.44 L2648.70 1155.88 L2652.89 1156.32 L2657.07 1156.77 L2661.12 1157.21 L2665.31 1157.50 L2669.49 1157.94 L2673.54 1158.39 L2677.73 1158.83 L2681.91 1159.12 L2686.10 1159.56 L2690.15 1160.01 L2694.33 1160.45 L2698.52 1160.74 L2702.57 1161.18 L2706.75 1161.63 L2710.94 1161.92 L2715.12 1162.36 L2719.17 1162.80 L2723.36 1163.10 L2727.54 1163.54 L2731.59 1163.83 L2735.78 1164.28 L2739.96 1164.57 L2744.15 1165.01 L2748.20 1165.31 L2752.38 1165.75 L2756.57 1166.04 L2760.62 1166.49 L2764.80 1166.78 L2768.99 1167.22 L2773.17 1167.52 L2777.22 1167.81 L2781.41 1168.25 L2785.59 1168.55 L2789.64 1168.84 L2793.83 1169.28 L2798.01 1169.58 L2802.06 1169.87 L2806.25 1170.17 L2810.43 1170.61 L2814.62 1170.90 L2818.67 1171.20 L2822.85 1171.49 L2827.04 1171.79 L2831.09 1172.08 L2835.27 1172.38 L2839.46 1172.67 L2843.64 1173.11 L2847.69 1173.41 L2851.88 1173.70 L2856.06 1173.85 L2860.11 1174.14 L2864.30 1174.44 L2868.48 1174.73 L2872.67 1175.03 L2876.72 1175.32 L2880.90 1175.62 L2885.09 1175.76 L2889.14 1176.06 L2893.32 1176.35 L2897.51 1176.65 L2901.69 1176.80 L2905.74 1177.09 L2909.93 1177.24 L2914.11 1177.53 L2918.16 1177.83 L2922.35 1177.97 L2926.53 1178.27 L2930.72 1178.42 L2934.77 1178.56 L2938.95 1178.86 L2943.14 1179.00 L2947.19 1179.15 L2951.37 1179.45 L2955.56 1179.59 L2959.74 1179.74 L2963.79 1179.89 L2967.98 1180.04 L2972.16 1180.18 L2976.21 1180.48 L2980.40 1180.62 L2984.58 1180.62 L2988.77 1180.77 L2992.82 1180.92 L2997.00 1181.07 L3001.19 1181.21 L3005.24 1181.36 L3009.42 1181.36 L3013.61 1181.51 L3017.79 1181.66 L3021.84 1181.66 L3026.03 1181.80 L3030.21 1181.95 L3034.26 1181.95 L3038.45 1181.95 L3042.63 1182.10 L3046.82 1182.10 L3050.87 1182.10 L3055.05 1182.25 L3059.24 1182.25 L3063.29 1182.25 L3067.47 1182.25 L3071.66 1182.25 L3075.84 1182.25 L3079.89 1182.25 L3084.08 1182.25 L3088.26 1182.25 L3092.31 1182.10 L3096.50 1182.10 L3100.68 1182.10 L3104.87 1181.95 L3108.92 1181.95 L3113.10 1181.80 L3117.29 1181.80 L3121.34 1181.66 L3125.52 1181.66 L3129.71 1181.51 L3133.89 1181.36 L3137.94 1181.21 L3142.13 1181.07 L3146.31 1180.92 L3150.36 1180.77 L3154.55 1180.62 L3158.73 1180.48 L3162.92 1180.33 L3166.97 1180.04 L3171.15 1179.89 L3175.34 1179.59 L3179.39 1179.45 L3183.57 1179.15 L3187.76 1179.00 L3191.94 1178.71 L3195.99 1178.42 L3200.18 1178.12 L3204.36 1177.83 L3208.41 1177.53 L3212.60 1177.24 L3216.78 1176.94 L3220.97 1176.65 L3225.02 1176.21 L3229.20 1175.91 L3233.39 1175.62 L3237.44 1175.18 L3241.62 1174.73 L3245.81 1174.44 L3249.99 1174.00 L3254.04 1173.56 L3258.23 1173.11 L3262.41 1172.67 L3266.46 1172.23 L3270.65 1171.79 L3274.83 1171.20 L3279.02 1170.76 L3283.07 1170.17 L3287.25 1169.73 L3291.44 1169.14 L3295.49 1168.55 L3299.67 1167.96 L3303.86 1167.52 L3308.04 1166.78 L3312.09 1166.19 L3316.28 1165.60 L3320.46 1165.01 L3324.51 1164.28 L3328.70 1163.69 L3332.88 1162.95 L3336.93 1162.21 L3341.12 1161.63 L3345.30 1160.89 L3349.49 1160.15 L3353.54 1159.42 L3357.72 1158.53 L3361.91 1157.80 L3365.96 1156.91 L3370.14 1156.18 L3374.33 1155.29 L3378.51 1154.41 L3382.56 1153.67 L3386.75 1152.64 L3390.93 1151.76 L3394.98 1150.87 L3399.17 1149.99 L3403.35 1148.96 L3407.54 1148.08 L3411.59 1147.04 L3415.77 1146.01 L3419.96 1144.98 L3424.01 1143.95 L3428.19 1142.92 L3432.38 1141.89 L3436.56 1140.71 L3440.61 1139.68 L3444.80 1138.50 L3448.98 1137.32 L3453.03 1136.15 L3457.22 1134.97 L3461.40 1133.79 L3465.59 1132.61 L3469.64 1131.28 L3473.82 1130.11 L3478.01 1128.78 L3482.06 1127.46 L3486.24 1126.13 L3490.43 1124.80 L3494.61 1123.33 L3498.66 1122.01 L3502.85 1120.53 L3507.03 1119.21 L3511.08 1117.73 L3515.27 1116.26 L3519.45 1114.79 L3523.64 1113.17 L3527.69 1111.70 L3531.87 1110.08 L3536.06 1108.60 L3540.11 1106.98 L3544.29 1105.36 L3548.48 1103.60 L3552.66 1101.98 L3556.71 1100.21 L3560.90 1098.59 L3565.08 1096.82 L3569.13 1095.05 L3573.32 1093.29 L3577.50 1091.37 L3581.69 1089.60 L3585.74 1087.69 L3589.92 1085.77 L3594.11 1083.86 L3598.16 1081.94 L3602.34 1080.03 L3606.53 1077.97 L3610.71 1076.05 L3614.76 1073.99 L3618.95 1071.93 L3623.13 1069.87 L3627.18 1067.66 L3631.37 1065.60 L3635.55 1063.39 L3639.74 1061.18 L3643.79 1058.97 L3647.97 1056.76 L3652.16 1054.40 L3656.21 1052.05 L3660.39 1049.84 L3664.58 1047.48 L3668.76 1044.98 L3672.81 1042.62 L3677.00 1040.12 L3681.18 1037.61 L3685.23 1035.11 L3689.42 1032.60 L3693.60 1030.10 L3697.79 1027.45 L3701.84 1024.80 L3706.02 1022.15 L3710.21 1019.50 L3714.26 1016.85 L3718.44 1014.05 L3722.63 1011.25 L3726.81 1008.45 L3730.86 1005.65 L3735.05 1002.71 L3739.23 999.91 L3743.28 996.96 L3747.47 994.02 L3751.65 990.92 L3755.84 987.98 L3759.89 984.89 L3764.07 981.79 L3768.26 978.70 L3772.31 975.46 L3776.49 972.22 L3780.68 968.98 L3784.86 965.74 L3788.91 962.50 L3793.10 959.11 L3797.28 955.72 L3801.33 952.34 L3805.52 948.95 L3809.70 945.41 L3813.89 942.03 L3817.94 938.49 L3822.12 934.81 L3826.31 931.27 L3830.36 927.59 L3834.54 923.91 L3838.73 920.23 L3842.91 916.40 L3846.96 912.57 L3851.15 908.74 L3855.33 904.91 L3859.38 900.93 L3863.57 897.10 L3867.75 893.13 L3871.94 889.00 L3875.99 885.03 L3880.17 880.90 L3884.36 876.78 L3888.41 872.51 L3892.59 868.38 L3896.78 864.11 L3900.83 859.69 L3905.01 855.42 L3909.20 851.00 L3913.38 846.59 L3917.43 842.17 L3921.62 837.60 L3925.80 833.04 L3929.85 828.47 L3934.04 823.90 L3938.22 819.19 L3942.41 814.48 L3946.46 809.62 L3950.64 804.90 L3954.83 800.04 L3958.88 795.18 L3963.06 790.18 L3967.25 785.17 L3971.43 780.16 L3975.48 775.15 L3979.67 770.00 L3983.85 764.84 L3987.90 759.69 L3992.09 754.39 L3996.27 749.08 L4000.46 743.78 L4004.51 738.33 L4008.69 732.88 L4012.88 727.43 L4016.93 721.98" stroke-linejoin="round" style="fill:none;stroke:#000000;stroke-width:7.20"/>
	<line x1="284.85" y1="2520.61" x2="244.89" y2="2520.61" style="stroke:#808080;stroke-width:5.76"/>
	<text x="224.91" y="2551.16" style="font-family:'Helvetica';font-size:79.92px;fill:#000000" text-anchor="end">0</text>
	<line x1="284.85" y1="2052.25" x2="244.89" y2="2052.25" style="stroke:#808080;stroke-width:5.76"/>
	<text x="224.91" y="2082.80" style="font-family:'Helvetica';font-size:79.92px;fill:#000000" text-anchor="end">.2</text>
	<line x1="284.85" y1="1584.03" x2="244.89" y2="1584.03" style="stroke:#808080;stroke-width:5.76"/>
	<text x="224.91" y="1614.59" style="font-family:'Helvetica';font-size:79.92px;fill:#000000" text-anchor="end">.4</text>
	<line x1="284.85" y1="1115.67" x2="244.89" y2="1115.67" style="stroke:#808080;stroke-width:5.76"/>
	<text x="224.91" y="1146.23" style="font-family:'Helvetica';font-size:79.92px;fill:#000000" text-anchor="end">.6</text>
	<line x1="284.85" y1="647.46" x2="244.89" y2="647.46" style="stroke:#808080;stroke-width:5.76"/>
	<text x="224.91" y="678.01" style="font-family:'Helvetica';font-size:79.92px;fill:#000000" text-anchor="end">.8</text>
	<line x1="284.85" y1="179.10" x2="244.89" y2="179.10" style="stroke:#808080;stroke-width:5.76"/>
	<text x="224.91" y="209.65" style="font-family:'Helvetica';font-size:79.92px;fill:#000000" text-anchor="end">1</text>
	<line x1="284.85" y1="2520.61" x2="284.85" y2="179.10" style="stroke:#808080;stroke-width:7.20"/>
	<line x1="476.28" y1="2589.69" x2="476.28" y2="2633.28" style="stroke:#808080;stroke-width:5.76"/>
	<text x="476.28" y="2716.04" style="font-family:'Helvetica';font-size:79.92px;fill:#000000" text-anchor="middle">-40</text>
	<line x1="1212.17" y1="2589.69" x2="1212.17" y2="2633.28" style="stroke:#808080;stroke-width:5.76"/>
	<text x="1212.17" y="2716.04" style="font-family:'Helvetica';font-size:79.92px;fill:#000000" text-anchor="middle">-20</text>
	<line x1="1948.05" y1="2589.69" x2="1948.05" y2="2633.28" style="stroke:#808080;stroke-width:5.76"/>
	<text x="1948.05" y="2716.04" style="font-family:'Helvetica';font-size:79.92px;fill:#000000" text-anchor="middle">0</text>
	<line x1="2683.94" y1="2589.69" x2="2683.94" y2="2633.28" style="stroke:#808080;stroke-width:5.76"/>
	<text x="2683.94" y="2716.04" style="font-family:'Helvetica';font-size:79.92px;fill:#000000" text-anchor="middle">20</text>
	<line x1="3419.82" y1="2589.69" x2="3419.82" y2="2633.28" style="stroke:#808080;stroke-width:5.76"/>
	<text x="3419.82" y="2716.04" style="font-family:'Helvetica';font-size:79.92px;fill:#000000" text-anchor="middle">40</text>
	<line x1="4155.84" y1="2589.69" x2="4155.84" y2="2633.28" style="stroke:#808080;stroke-width:5.76"/>
	<text x="4155.84" y="2716.04" style="font-family:'Helvetica';font-size:79.92px;fill:#000000" text-anchor="middle">60</text>
	<line x1="476.28" y1="2589.69" x2="4155.84" y2="2589.69" style="stroke:#808080;stroke-width:7.20"/>
	<rect x="1075.68" y="2812.82" width="2352.64" height="181.45" style="fill:#FFFFFF"/>
	<rect x="1078.56" y="2815.70" width="2346.89" height="175.69" style="fill:none;stroke:#FFFFFF;stroke-opacity:0.00;stroke-width:5.76"/>
	<circle cx="1133.87" cy="2903.55" r="12.69" style="fill:#A0A0A0"/>
	<circle cx="1133.87" cy="2903.55" r="10.53" style="fill:none;stroke:#A0A0A0;stroke-width:4.32"/>
	<line x1="2308.64" y1="2903.55" x2="2452.68" y2="2903.55" style="stroke:#000000;stroke-width:7.20"/>
	<text x="1208.79" y="2934.10" style="font-family:'Helvetica';font-size:79.92px;fill:#000000">Sample average within bin</text>
	<text x="2512.62" y="2934.10" style="font-family:'Helvetica';font-size:79.92px;fill:#000000">Polynomial fit of order 4</text>
</svg>