<svg xmlns="http://www.w3.org/2000/svg" xmlns:xlink="http://www.w3.org/1999/xlink" version="1.1" width="5.500in" height="4.000in" viewBox="0 0 4320 3142">
	<desc>Stata Graph - Graph</desc>
	<rect x="0" y="0" width="4320" height="3142" style="fill:#FFFFFF;stroke:none"/>
	<rect x="0.00" y="0.00" width="4320.00" height="3142.00" style="fill:#FFFFFF"/>
	<rect x="2.88" y="2.88" width="4314.24" height="3136.24" style="fill:none;stroke:#FFFFFF;stroke-width:5.76"/>
	<rect x="284.85" y="110.02" width="3219.62" height="2573.93" style="fill:#FFFFFF"/>
	<rect x="287.73" y="112.90" width="3213.86" height="2568.17" style="fill:none;stroke:#FFFFFF;stroke-opacity:0.00;stroke-width:5.76"/>
	<line x1="284.85" y1="2414.57" x2="3504.47" y2="2414.57" style="stroke:#E0E0E0;stroke-width:4.32"/>
	<line x1="284.85" y1="1875.51" x2="3504.47" y2="1875.51" style="stroke:#E0E0E0;stroke-width:4.32"/>
	<line x1="284.85" y1="1336.45" x2="3504.47" y2="1336.45" style="stroke:#E0E0E0;stroke-width:4.32"/>
	<line x1="284.85" y1="797.39" x2="3504.47" y2="797.39" style="stroke:#E0E0E0;stroke-width:4.32"/>
	<line x1="284.85" y1="258.34" x2="3504.47" y2="258.34" style="stroke:#E0E0E0;stroke-width:4.32"/>
	<line x1="348.17" y1="2683.95" x2="348.17" y2="110.02" style="stroke:#E0E0E0;stroke-width:4.32"/>
	<line x1="1345.95" y1="2683.95" x2="1345.95" y2="110.02" style="stroke:#E0E0E0;stroke-width:4.32"/>
	<line x1="2343.60" y1="2683.95" x2="2343.60" y2="110.02" style="stroke:#E0E0E0;stroke-width:4.32"/>
	<line x1="3341.25" y1="2683.95" x2="3341.25" y2="110.02" style="stroke:#E0E0E0;stroke-width:4.32"/>
	<line x1="547.70" y1="1705.10" x2="547.70" y2="622.42" style="stroke:#00496F;stroke-opacity:0.50;stroke-width:28.80"/>
	<line x1="747.23" y1="1553.11" x2="747.23" y2="881.34" style="stroke:#00496F;stroke-opacity:0.50;stroke-width:28.80"/>
	<line x1="946.76" y1="1494.78" x2="946.76" y2="930.39" style="stroke:#00496F;stroke-opacity:0.50;stroke-width:28.80"/>
	<line x1="1146.42" y1="1412.89" x2="1146.42" y2="927.44" style="stroke:#00496F;stroke-opacity:0.50;stroke-width:28.80"/>
	<line x1="1345.95" y1="1370.33" x2="1345.95" y2="925.38" style="stroke:#00496F;stroke-opacity:0.50;stroke-width:28.80"/>
	<line x1="1545.48" y1="1329.53" x2="1545.48" y2="921.70" style="stroke:#00496F;stroke-opacity:0.50;stroke-width:28.80"/>
	<line x1="1745.01" y1="1432.04" x2="1745.01" y2="1061.33" style="stroke:#00496F;stroke-opacity:0.50;stroke-width:28.80"/>
	<line x1="1944.54" y1="1467.68" x2="1944.54" y2="1119.65" style="stroke:#00496F;stroke-opacity:0.50;stroke-width:28.80"/>
	<line x1="2144.07" y1="1508.92" x2="2144.07" y2="1179.59" style="stroke:#00496F;stroke-opacity:0.50;stroke-width:28.80"/>
	<line x1="2343.60" y1="1469.89" x2="2343.60" y2="1162.36" style="stroke:#00496F;stroke-opacity:0.50;stroke-width:28.80"/>
	<line x1="2543.13" y1="1442.79" x2="2543.13" y2="1148.08" style="stroke:#00496F;stroke-opacity:0.50;stroke-width:28.80"/>
	<line x1="2742.66" y1="1425.85" x2="2742.66" y2="1146.01" style="stroke:#00496F;stroke-opacity:0.50;stroke-width:28.80"/>
	<line x1="2942.19" y1="1423.35" x2="2942.19" y2="1153.38" style="stroke:#00496F;stroke-opacity:0.50;stroke-width:28.80"/>
	<line x1="3141.72" y1="1456.63" x2="3141.72" y2="1194.62" style="stroke:#00496F;stroke-opacity:0.50;stroke-width:28.80"/>
	<line x1="3341.25" y1="1417.75" x2="3341.25" y2="1163.10" style="stroke:#00496F;stroke-opacity:0.50;stroke-width:28.80"/>
	<circle cx="547.70" cy="1163.83" r="14.85" style="fill:#00496F"/>
	<circle cx="547.70" cy="1163.83" r="12.69" style="fill:none;stroke:#00496F;stroke-width:4.32"/>
	<circle cx="747.23" cy="1217.30" r="14.85" style="fill:#00496F"/>
	<circle cx="747.23" cy="1217.30" r="12.69" style="fill:none;stroke:#00496F;stroke-width:4.32"/>
	<circle cx="946.76" cy="1212.73" r="14.85" style="fill:#00496F"/>
	<circle cx="946.76" cy="1212.73" r="12.69" style="fill:none;stroke:#00496F;stroke-width:4.32"/>
	<circle cx="1146.29" cy="1170.17" r="14.85" style="fill:#00496F"/>
	<circle cx="1146.29" cy="1170.17" r="12.69" style="fill:none;stroke:#00496F;stroke-width:4.32"/>
	<circle cx="1345.82" cy="1147.93" r="14.85" style="fill:#00496F"/>
	<circle cx="1345.82" cy="1147.93" r="12.69" style="fill:none;stroke:#00496F;stroke-width:4.32"/>
	<circle cx="1545.35" cy="1125.69" r="14.85" style="fill:#00496F"/>
	<circle cx="1545.35" cy="1125.69" r="12.69" style="fill:none;stroke:#00496F;stroke-width:4.32"/>
	<circle cx="1744.88" cy="1246.76" r="14.85" style="fill:#00496F"/>
	<circle cx="1744.88" cy="1246.76" r="12.69" style="fill:none;stroke:#00496F;stroke-width:4.32"/>
	<circle cx="1944.41" cy="1293.74" r="14.85" style="fill:#00496F"/>
	<circle cx="1944.41" cy="1293.74" r="12.69" style="fill:none;stroke:#00496F;stroke-width:4.32"/>
	<circle cx="2143.94" cy="1344.26" r="14.85" style="fill:#00496F"/>
	<circle cx="2143.94" cy="1344.26" r="12.69" style="fill:none;stroke:#00496F;stroke-width:4.32"/>
	<circle cx="2343.47" cy="1316.13" r="14.85" style="fill:#00496F"/>
	<circle cx="2343.47" cy="1316.13" r="12.69" style="fill:none;stroke:#00496F;stroke-width:4.32"/>
	<circle cx="2543.00" cy="1295.51" r="14.85" style="fill:#00496F"/>
	<circle cx="2543.00" cy="1295.51" r="12.69" style="fill:none;stroke:#00496F;stroke-width:4.32"/>
	<circle cx="2742.66" cy="1285.93" r="14.85" style="fill:#00496F"/>
	<circle cx="2742.66" cy="1285.93" r="12.69" style="fill:none;stroke:#00496F;stroke-width:4.32"/>
	<circle cx="2942.19" cy="1288.44" r="14.85" style="fill:#00496F"/>
	<circle cx="2942.19" cy="1288.44" r="12.69" style="fill:none;stroke:#00496F;stroke-width:4.32"/>
	<circle cx="3141.72" cy="1325.70" r="14.85" style="fill:#00496F"/>
	<circle cx="3141.72" cy="1325.70" r="12.69" style="fill:none;stroke:#00496F;stroke-width:4.32"/>
	<circle cx="3341.25" cy="1290.50" r="14.85" style="fill:#00496F"/>
	<circle cx="3341.25" cy="1290.50" r="12.69" style="fill:none;stroke:#00496F;stroke-width:4.32"/>
	<line x1="597.65" y1="2024.27" x2="597.65" y2="319.16" style="stroke:#0F85A0;stroke-opacity:0.50;stroke-width:28.80"/>
	<line x1="797.18" y1="1877.72" x2="797.18" y2="760.28" style="stroke:#0F85A0;stroke-opacity:0.50;stroke-width:28.80"/>
	<line x1="996.71" y1="1710.26" x2="996.71" y2="852.92" style="stroke:#0F85A0;stroke-opacity:0.50;stroke-width:28.80"/>
	<line x1="1196.23" y1="1647.66" x2="1196.23" y2="908.15" style="stroke:#0F85A0;stroke-opacity:0.50;stroke-width:28.80"/>
	<line x1="1395.77" y1="1567.10" x2="1395.77" y2="924.35" style="stroke:#0F85A0;stroke-opacity:0.50;stroke-width:28.80"/>
	<line x1="1595.30" y1="1519.08" x2="1595.30" y2="930.54" style="stroke:#0F85A0;stroke-opacity:0.50;stroke-width:28.80"/>
	<line x1="1794.83" y1="1361.34" x2="1794.83" y2="803.14" style="stroke:#0F85A0;stroke-opacity:0.50;stroke-width:28.80"/>
	<line x1="1994.36" y1="1349.12" x2="1994.36" y2="829.80" style="stroke:#0F85A0;stroke-opacity:0.50;stroke-width:28.80"/>
	<line x1="2193.89" y1="1336.01" x2="2193.89" y2="852.92" style="stroke:#0F85A0;stroke-opacity:0.50;stroke-width:28.80"/>
	<line x1="2393.42" y1="1430.57" x2="2393.42" y2="958.23" style="stroke:#0F85A0;stroke-opacity:0.50;stroke-width:28.80"/>
	<line x1="2592.95" y1="1470.48" x2="2592.95" y2="1023.33" style="stroke:#0F85A0;stroke-opacity:0.50;stroke-width:28.80"/>
	<line x1="2792.61" y1="1486.83" x2="2792.61" y2="1055.43" style="stroke:#0F85A0;stroke-opacity:0.50;stroke-width:28.80"/>
	<line x1="2992.14" y1="1475.49" x2="2992.14" y2="1061.03" style="stroke:#0F85A0;stroke-opacity:0.50;stroke-width:28.80"/>
	<line x1="3191.67" y1="1422.17" x2="3191.67" y2="1026.86" style="stroke:#0F85A0;stroke-opacity:0.50;stroke-width:28.80"/>
	<line x1="3391.20" y1="1476.52" x2="3391.20" y2="1097.26" style="stroke:#0F85A0;stroke-opacity:0.50;stroke-width:28.80"/>
	<circle cx="597.51" cy="1171.79" r="14.85" style="fill:#0F85A0"/>
	<circle cx="597.51" cy="1171.79" r="12.69" style="fill:none;stroke:#0F85A0;stroke-width:4.32"/>
	<circle cx="797.04" cy="1319.07" r="14.85" style="fill:#0F85A0"/>
	<circle cx="797.04" cy="1319.07" r="12.69" style="fill:none;stroke:#0F85A0;stroke-width:4.32"/>
	<circle cx="996.57" cy="1281.66" r="14.85" style="fill:#0F85A0"/>
	<circle cx="996.57" cy="1281.66" r="12.69" style="fill:none;stroke:#0F85A0;stroke-width:4.32"/>
	<circle cx="1196.23" cy="1277.98" r="14.85" style="fill:#0F85A0"/>
	<circle cx="1196.23" cy="1277.98" r="12.69" style="fill:none;stroke:#0F85A0;stroke-width:4.32"/>
	<circle cx="1395.77" cy="1245.72" r="14.85" style="fill:#0F85A0"/>
	<circle cx="1395.77" cy="1245.72" r="12.69" style="fill:none;stroke:#0F85A0;stroke-width:4.32"/>
	<circle cx="1595.30" cy="1224.81" r="14.85" style="fill:#0F85A0"/>
	<circle cx="1595.30" cy="1224.81" r="12.69" style="fill:none;stroke:#0F85A0;stroke-width:4.32"/>
	<circle cx="1794.83" cy="1082.24" r="14.85" style="fill:#0F85A0"/>
	<circle cx="1794.83" cy="1082.24" r="12.69" style="fill:none;stroke:#0F85A0;stroke-width:4.32"/>
	<circle cx="1994.36" cy="1089.60" r="14.85" style="fill:#0F85A0"/>
	<circle cx="1994.36" cy="1089.60" r="12.69" style="fill:none;stroke:#0F85A0;stroke-width:4.32"/>
	<circle cx="2193.89" cy="1094.61" r="14.85" style="fill:#0F85A0"/>
	<circle cx="2193.89" cy="1094.61" r="12.69" style="fill:none;stroke:#0F85A0;stroke-width:4.32"/>
	<circle cx="2393.42" cy="1194.47" r="14.85" style="fill:#0F85A0"/>
	<circle cx="2393.42" cy="1194.47" r="12.69" style="fill:none;stroke:#0F85A0;stroke-width:4.32"/>
	<circle cx="2592.95" cy="1247.05" r="14.85" style="fill:#0F85A0"/>
	<circle cx="2592.95" cy="1247.05" r="12.69" style="fill:none;stroke:#0F85A0;stroke-width:4.32"/>
	<circle cx="2792.48" cy="1271.20" r="14.85" style="fill:#0F85A0"/>
	<circle cx="2792.48" cy="1271.20" r="12.69" style="fill:none;stroke:#0F85A0;stroke-width:4.32"/>
	<circle cx="2992.01" cy="1268.26" r="14.85" style="fill:#0F85A0"/>
	<circle cx="2992.01" cy="1268.26" r="12.69" style="fill:none;stroke:#0F85A0;stroke-width:4.32"/>
	<circle cx="3191.54" cy="1224.52" r="14.85" style="fill:#0F85A0"/>
	<circle cx="3191.54" cy="1224.52" r="12.69" style="fill:none;stroke:#0F85A0;stroke-width:4.32"/>
	<circle cx="3391.07" cy="1286.96" r="14.85" style="fill:#0F85A0"/>
	<circle cx="3391.07" cy="1286.96" r="12.69" style="fill:none;stroke:#0F85A0;stroke-width:4.32"/>
	<line x1="647.46" y1="2614.87" x2="647.46" y2="402.67" style="stroke:#EDD746;stroke-opacity:0.50;stroke-width:28.80"/>
	<line x1="846.99" y1="1916.16" x2="846.99" y2="179.10" style="stroke:#EDD746;stroke-opacity:0.50;stroke-width:28.80"/>
	<line x1="1046.52" y1="1788.91" x2="1046.52" y2="581.77" style="stroke:#EDD746;stroke-opacity:0.50;stroke-width:28.80"/>
	<line x1="1246.19" y1="1757.24" x2="1246.19" y2="753.06" style="stroke:#EDD746;stroke-opacity:0.50;stroke-width:28.80"/>
	<line x1="1445.72" y1="1728.08" x2="1445.72" y2="837.45" style="stroke:#EDD746;stroke-opacity:0.50;stroke-width:28.80"/>
	<line x1="1645.25" y1="1674.47" x2="1645.25" y2="872.80" style="stroke:#EDD746;stroke-opacity:0.50;stroke-width:28.80"/>
	<line x1="1844.78" y1="1695.53" x2="1844.78" y2="963.09" style="stroke:#EDD746;stroke-opacity:0.50;stroke-width:28.80"/>
	<line x1="2044.31" y1="1562.09" x2="2044.31" y2="873.69" style="stroke:#EDD746;stroke-opacity:0.50;stroke-width:28.80"/>
	<line x1="2243.84" y1="1492.42" x2="2243.84" y2="838.93" style="stroke:#EDD746;stroke-opacity:0.50;stroke-width:28.80"/>
	<line x1="2443.36" y1="1356.04" x2="2443.36" y2="750.85" style="stroke:#EDD746;stroke-opacity:0.50;stroke-width:28.80"/>
	<line x1="2642.90" y1="1341.02" x2="2642.90" y2="751.29" style="stroke:#EDD746;stroke-opacity:0.50;stroke-width:28.80"/>
	<line x1="2842.43" y1="1362.81" x2="2842.43" y2="801.96" style="stroke:#EDD746;stroke-opacity:0.50;stroke-width:28.80"/>
	<line x1="3041.96" y1="1407.44" x2="3041.96" y2="861.90" style="stroke:#EDD746;stroke-opacity:0.50;stroke-width:28.80"/>
	<line x1="3241.49" y1="1471.80" x2="3241.49" y2="941.58" style="stroke:#EDD746;stroke-opacity:0.50;stroke-width:28.80"/>
	<line x1="3441.02" y1="1403.91" x2="3441.02" y2="887.24" style="stroke:#EDD746;stroke-opacity:0.50;stroke-width:28.80"/>
	<circle cx="647.46" cy="1508.77" r="14.85" style="fill:#EDD746"/>
	<circle cx="647.46" cy="1508.77" r="12.69" style="fill:none;stroke:#EDD746;stroke-width:4.32"/>
	<circle cx="846.99" cy="1047.78" r="14.85" style="fill:#EDD746"/>
	<circle cx="846.99" cy="1047.78" r="12.69" style="fill:none;stroke:#EDD746;stroke-width:4.32"/>
	<circle cx="1046.52" cy="1185.49" r="14.85" style="fill:#EDD746"/>
	<circle cx="1046.52" cy="1185.49" r="12.69" style="fill:none;stroke:#EDD746;stroke-width:4.32"/>
	<circle cx="1246.05" cy="1255.30" r="14.85" style="fill:#EDD746"/>
	<circle cx="1246.05" cy="1255.30" r="12.69" style="fill:none;stroke:#EDD746;stroke-width:4.32"/>
	<circle cx="1445.58" cy="1282.84" r="14.85" style="fill:#EDD746"/>
	<circle cx="1445.58" cy="1282.84" r="12.69" style="fill:none;stroke:#EDD746;stroke-width:4.32"/>
	<circle cx="1645.11" cy="1273.71" r="14.85" style="fill:#EDD746"/>
	<circle cx="1645.11" cy="1273.71" r="12.69" style="fill:none;stroke:#EDD746;stroke-width:4.32"/>
	<circle cx="1844.64" cy="1329.38" r="14.85" style="fill:#EDD746"/>
	<circle cx="1844.64" cy="1329.38" r="12.69" style="fill:none;stroke:#EDD746;stroke-width:4.32"/>
	<circle cx="2044.17" cy="1217.89" r="14.85" style="fill:#EDD746"/>
	<circle cx="2044.17" cy="1217.89" r="12.69" style="fill:none;stroke:#EDD746;stroke-width:4.32"/>
	<circle cx="2243.70" cy="1165.75" r="14.85" style="fill:#EDD746"/>
	<circle cx="2243.70" cy="1165.75" r="12.69" style="fill:none;stroke:#EDD746;stroke-width:4.32"/>
	<circle cx="2443.23" cy="1053.52" r="14.85" style="fill:#EDD746"/>
	<circle cx="2443.23" cy="1053.52" r="12.69" style="fill:none;stroke:#EDD746;stroke-width:4.32"/>
	<circle cx="2642.76" cy="1046.16" r="14.85" style="fill:#EDD746"/>
	<circle cx="2642.76" cy="1046.16" r="12.69" style="fill:none;stroke:#EDD746;stroke-width:4.32"/>
	<circle cx="2842.43" cy="1082.53" r="14.85" style="fill:#EDD746"/>
	<circle cx="2842.43" cy="1082.53" r="12.69" style="fill:none;stroke:#EDD746;stroke-width:4.32"/>
	<circle cx="3041.96" cy="1134.82" r="14.85" style="fill:#EDD746"/>
	<circle cx="3041.96" cy="1134.82" r="12.69" style="fill:none;stroke:#EDD746;stroke-width:4.32"/>
	<circle cx="3241.49" cy="1206.84" r="14.85" style="fill:#EDD746"/>
	<circle cx="3241.49" cy="1206.84" r="12.69" style="fill:none;stroke:#EDD746;stroke-width:4.32"/>
	<circle cx="3441.02" cy="1145.72" r="14.85" style="fill:#EDD746"/>
	<circle cx="3441.02" cy="1145.72" r="12.69" style="fill:none;stroke:#EDD746;stroke-width:4.32"/>
	<line x1="284.85" y1="2414.57" x2="244.89" y2="2414.57" style="stroke:#808080;stroke-width:5.76"/>
	<text x="224.91" y="2445.12" style="font-family:'Helvetica';font-size:79.92px;fill:#000000" text-anchor="end">0</text>
	<line x1="284.85" y1="1875.51" x2="244.89" y2="1875.51" style="stroke:#808080;stroke-width:5.76"/>
	<text x="224.91" y="1906.06" style="font-family:'Helvetica';font-size:79.92px;fill:#000000" text-anchor="end">.2</text>
	<line x1="284.85" y1="1336.45" x2="244.89" y2="1336.45" style="stroke:#808080;stroke-width:5.76"/>
	<text x="224.91" y="1367.00" style="font-family:'Helvetica';font-size:79.92px;fill:#000000" text-anchor="end">.4</text>
	<line x1="284.85" y1="797.39" x2="244.89" y2="797.39" style="stroke:#808080;stroke-width:5.76"/>
	<text x="224.91" y="827.95" style="font-family:'Helvetica';font-size:79.92px;fill:#000000" text-anchor="end">.6</text>
	<line x1="284.85" y1="258.34" x2="244.89" y2="258.34" style="stroke:#808080;stroke-width:5.76"/>
	<text x="224.91" y="288.89" style="font-family:'Helvetica';font-size:79.92px;fill:#000000" text-anchor="end">.8</text>
	<line x1="284.85" y1="2414.57" x2="284.85" y2="258.34" style="stroke:#808080;stroke-width:7.20"/>
	<line x1="348.17" y1="2683.95" x2="348.17" y2="2727.54" style="stroke:#808080;stroke-width:5.76"/>
	<text x="348.17" y="2810.30" style="font-family:'Helvetica';font-size:79.92px;fill:#000000" text-anchor="middle">0</text>
	<line x1="1345.95" y1="2683.95" x2="1345.95" y2="2727.54" style="stroke:#808080;stroke-width:5.76"/>
	<text x="1345.95" y="2810.30" style="font-family:'Helvetica';font-size:79.92px;fill:#000000" text-anchor="middle">5</text>
	<line x1="2343.60" y1="2683.95" x2="2343.60" y2="2727.54" style="stroke:#808080;stroke-width:5.76"/>
	<text x="2343.60" y="2810.30" style="font-family:'Helvetica';font-size:79.92px;fill:#000000" text-anchor="middle">10</text>
	<line x1="3341.25" y1="2683.95" x2="3341.25" y2="2727.54" style="stroke:#808080;stroke-width:5.76"/>
	<text x="3341.25" y="2810.30" style="font-family:'Helvetica';font-size:79.92px;fill:#000000" text-anchor="middle">15</text>
	<line x1="348.17" y1="2683.95" x2="3341.25" y2="2683.95" style="stroke:#808080;stroke-width:7.20"/>
	<text x="1894.59" y="2946.25" style="font-family:'Helvetica';font-size:79.92px;fill:#000000" text-anchor="middle">Bandwidth</text>
	<rect x="3539.03" y="1175.32" width="645.57" height="443.32" style="fill:#FFFFFF"/>
	<rect x="3541.90" y="1178.20" width="639.81" height="437.56" style="fill:none;stroke:#FFFFFF;stroke-opacity:0.00;stroke-width:5.76"/>
	<line x1="3582.23" y1="1266.05" x2="3726.14" y2="1266.05" style="stroke:#00496F;stroke-opacity:0.50;stroke-width:28.80"/>
	<line x1="3582.23" y1="1396.98" x2="3726.14" y2="1396.98" style="stroke:#0F85A0;stroke-opacity:0.50;stroke-width:28.80"/>
	<line x1="3582.23" y1="1527.77" x2="3726.14" y2="1527.77" style="stroke:#EDD746;stroke-opacity:0.50;stroke-width:28.80"/>
	<text x="3786.21" y="1296.60" style="font-family:'Helvetica';font-size:79.92px;fill:#000000">Linear</text>
	<text x="3786.21" y="1427.54" style="font-family:'Helvetica';font-size:79.92px;fill:#000000">Quadratic</text>
	<text x="3786.21" y="1558.33" style="font-family:'Helvetica';font-size:79.92px;fill:#000000">Cubic</text>
</svg>